<svg xmlns="http://www.w3.org/2000/svg" xmlns:xlink="http://www.w3.org/1999/xlink" width="264.047" height="211.306" viewBox="0 0 264.047 211.306">
  <defs>
    <clipPath id="clip-path">
      <rect id="Rectangle_6" data-name="Rectangle 6" width="264.047" height="207.042" fill="none"/>
    </clipPath>
    <clipPath id="clip-path-2">
      <rect id="Rectangle_7" data-name="Rectangle 7" width="264.047" height="207.042" fill="#41b8ea"/>
    </clipPath>
  </defs>
  <g id="Best_Trade_Execution" data-name="Best Trade Execution" transform="translate(-674 -3287)">
    <g id="Group_143" data-name="Group 143" transform="translate(2)">
      <path id="Path_80367" data-name="Path 80367" d="M8.162,0V-3.564H.4V-6.006l8.1-9.614h2.684v9.284h2.046v2.772H11.176V0ZM4.092-6.336h4.07v-4.818ZM22.814,0,20.262-3.234,17.71,0H14.08l4.268-5.39L14.19-11h3.564L20.24-7.634,22.726-11h3.586L22.154-5.39,26.422,0ZM36.08,0,31.218-15.62h3.366L37.6-5.236,40.832-15.62h2.794L46.838-5.236,49.874-15.62h3.388L48.4,0H45.54l-3.3-10.736L38.94,0ZM55.2,0V-15.62h3.19V0ZM75.812,0h-2.75L65.054-10.186V0h-3.19V-15.62h2.75L72.622-5.434V-15.62h3.19ZM93.236,0h-2.75L82.478-10.186V0h-3.19V-15.62h2.75L90.046-5.434V-15.62h3.19Zm3.476,0V-15.62h9.724v3.036H99.9v3.212h5.214v3.036H99.9v3.3h6.534V0Zm12.5,0V-15.62h5.984a4.708,4.708,0,0,1,3.465,1.32,4.458,4.458,0,0,1,1.331,3.3,4,4,0,0,1-3.212,4.07L122.386,0h-3.85l-5.368-6.578h-.77V0Zm3.19-9.306h2.42a2.209,2.209,0,0,0,1.463-.451A1.533,1.533,0,0,0,116.82-11a1.533,1.533,0,0,0-.539-1.243,2.209,2.209,0,0,0-1.463-.451H112.4Z" transform="translate(744 3321)" fill="#606060"/>
      <g id="Group_125" data-name="Group 125" transform="translate(12117.361 9608)">
        <g id="Group_77" data-name="Group 77">
          <path id="Path_56" data-name="Path 56" d="M171.272,0l-1.29,3.969h-4.171l3.375,2.452-1.29,3.967,3.376-2.452,3.375,2.452-1.29-3.967,3.375-2.452h-4.171Z" transform="translate(-11490.722 -6321)" fill="#606060"/>
          <path id="Path_57" data-name="Path 57" d="M152.99,0,151.7,3.969h-4.172L150.9,6.42l-1.289,3.967,3.375-2.452,3.375,2.452L155.077,6.42l3.375-2.452h-4.172Z" transform="translate(-11485.665 -6321)" fill="#606060"/>
          <path id="Path_60" data-name="Path 60" d="M207.834,0l-1.289,3.969h-4.171l3.375,2.452-1.29,3.967,3.375-2.452,3.376,2.452L209.92,6.42l3.375-2.452h-4.171Z" transform="translate(-11500.835 -6321)" fill="#606060"/>
          <path id="Path_61" data-name="Path 61" d="M189.553,0l-1.289,3.969h-4.172l3.375,2.452-1.289,3.967,3.375-2.452,3.375,2.452L191.639,6.42l3.375-2.452h-4.172Z" transform="translate(-11495.778 -6321)" fill="#606060"/>
        </g>
      </g>
    </g>
    <g id="Group_126" data-name="Group 126" transform="translate(674 3287)">
      <g id="Group_16" data-name="Group 16" clip-path="url(#clip-path-2)">
        <path id="Path_62" data-name="Path 62" d="M347.192,111.891l3.917-2.1a13.521,13.521,0,0,0,7.2-13.053l-.319-4.432-3.919,2.1a13.521,13.521,0,0,0-7.2,13.045Z" transform="translate(-95.93 -25.531)" fill="#41b8ea" fill-rule="evenodd"/>
        <path id="Path_63" data-name="Path 63" d="M339.938,163.372l4.4-.7a13.482,13.482,0,0,0,11.078-9.973l1.155-4.307-4.407.7a13.478,13.478,0,0,0-11.07,9.972Z" transform="translate(-94.021 -41.043)" fill="#41b8ea" fill-rule="evenodd"/>
        <path id="Path_64" data-name="Path 64" d="M316.465,208.656l4.376.851a13.487,13.487,0,0,0,13.822-5.582l2.561-3.655-4.385-.846A13.489,13.489,0,0,0,319.029,205Z" transform="translate(-87.529 -55.085)" fill="#41b8ea" fill-rule="evenodd"/>
        <path id="Path_65" data-name="Path 65" d="M279.739,242.887l3.732,2.39a13.5,13.5,0,0,0,14.907-.1l3.715-2.442-3.751-2.395a13.5,13.5,0,0,0-14.9.1Z" transform="translate(-77.371 -65.869)" fill="#41b8ea" fill-rule="evenodd"/>
        <path id="Path_66" data-name="Path 66" d="M329.334,67.8l-2.115-3.858a13.519,13.519,0,0,0-13.131-7.057l-4.388.363,2.123,3.861a13.526,13.526,0,0,0,13.124,7.05Z" transform="translate(-85.658 -15.719)" fill="#41b8ea" fill-rule="evenodd"/>
        <path id="Path_67" data-name="Path 67" d="M340.456,113.036l-.731-4.325a13.489,13.489,0,0,0-10.072-10.984l-4.253-1.1.737,4.333a13.488,13.488,0,0,0,10.069,10.978Z" transform="translate(-90 -26.725)" fill="#41b8ea" fill-rule="evenodd"/>
        <path id="Path_68" data-name="Path 68" d="M334.961,160.663l.862-4.3a13.493,13.493,0,0,0-5.486-13.858l-3.582-2.549-.859,4.319a13.5,13.5,0,0,0,5.486,13.843Z" transform="translate(-90.061 -38.709)" fill="#41b8ea" fill-rule="evenodd"/>
        <path id="Path_69" data-name="Path 69" d="M313.515,202.911l2.245-3.8a13.49,13.49,0,0,0-.619-14.888l-2.545-3.6-2.245,3.8a13.5,13.5,0,0,0,.62,14.879Z" transform="translate(-85.302 -49.959)" fill="#41b8ea" fill-rule="evenodd"/>
        <path id="Path_70" data-name="Path 70" d="M278.062,235.882l3.488-2.729a13.486,13.486,0,0,0,4.855-14.091l-1.073-4.3-3.49,2.739a13.492,13.492,0,0,0-4.848,14.082Z" transform="translate(-76.495 -59.399)" fill="#41b8ea" fill-rule="evenodd"/>
        <path id="Path_71" data-name="Path 71" d="M325.419,40.793l2.366-3.718a13.494,13.494,0,0,0-.133-14.9l-2.433-3.678-2.363,3.727a13.512,13.512,0,0,0,.135,14.892Z" transform="translate(-88.696 -5.115)" fill="#41b8ea" fill-rule="evenodd"/>
        <path id="Path_72" data-name="Path 72" d="M344.046,87.069l3.517-2.69a13.49,13.49,0,0,0,4.99-14.046l-1.03-4.314L348,68.723a13.514,13.514,0,0,0-4.983,14.034Z" transform="translate(-94.767 -18.26)" fill="#41b8ea" fill-rule="evenodd"/>
        <path id="Path_73" data-name="Path 73" d="M345.885,137.535l4.21-1.434a13.48,13.48,0,0,0,9.216-11.719l.4-4.432-4.215,1.44a13.482,13.482,0,0,0-9.208,11.711Z" transform="translate(-95.666 -33.176)" fill="#41b8ea" fill-rule="evenodd"/>
        <path id="Path_74" data-name="Path 74" d="M329.843,187.325l4.456.13a13.488,13.488,0,0,0,12.734-7.747l1.937-4.024-4.466-.125a13.481,13.481,0,0,0-12.724,7.746Z" transform="translate(-91.229 -48.555)" fill="#41b8ea" fill-rule="evenodd"/>
        <path id="Path_75" data-name="Path 75" d="M299.424,227.583l4.146,1.612a13.566,13.566,0,0,0,14.595-3.034l3.161-3.134-4.152-1.612a13.565,13.565,0,0,0-14.586,3.037Z" transform="translate(-82.816 -60.978)" fill="#41b8ea" fill-rule="evenodd"/>
        <path id="Path_76" data-name="Path 76" d="M318.1,46.617l-2.744-3.445a13.486,13.486,0,0,0-14.139-4.72l-4.275,1.107,2.758,3.453a13.485,13.485,0,0,0,14.134,4.714Z" transform="translate(-82.13 -10.509)" fill="#41b8ea" fill-rule="evenodd"/>
        <path id="Path_77" data-name="Path 77" d="M336.88,90.056,335.4,85.918a13.494,13.494,0,0,0-11.839-9.046l-4.385-.34,1.484,4.143a13.489,13.489,0,0,0,11.837,9.04Z" transform="translate(-88.277 -21.168)" fill="#41b8ea" fill-rule="evenodd"/>
        <path id="Path_78" data-name="Path 78" d="M339.984,136.764l.079-4.381a13.49,13.49,0,0,0-7.876-12.653l-3.968-1.861-.082,4.386a13.474,13.474,0,0,0,7.874,12.648Z" transform="translate(-90.757 -32.6)" fill="#41b8ea" fill-rule="evenodd"/>
        <path id="Path_79" data-name="Path 79" d="M326.112,182.887l1.531-4.106a13.513,13.513,0,0,0-3.246-14.55l-3.132-3.07-1.533,4.114a13.512,13.512,0,0,0,3.248,14.544Z" transform="translate(-88.188 -44.575)" fill="#41b8ea" fill-rule="evenodd"/>
        <path id="Path_80" data-name="Path 80" d="M297.419,220.931l2.848-3.368a13.511,13.511,0,0,0,1.874-14.788l-1.919-3.975-2.851,3.377a13.52,13.52,0,0,0-1.869,14.777Z" transform="translate(-81.347 -54.985)" fill="#41b8ea" fill-rule="evenodd"/>
        <path id="Path_81" data-name="Path 81" d="M336.845,63.16l2.968-3.269a13.5,13.5,0,0,0,2.393-14.714l-1.777-4.043-2.97,3.275a13.5,13.5,0,0,0-2.387,14.7Z" transform="translate(-92.346 -11.377)" fill="#41b8ea" fill-rule="evenodd"/>
        <path id="Path_82" data-name="Path 82" d="M311.771,30.117l-.657-4.668A11.327,11.327,0,0,0,302.892,16l-4.534-1.3.661,4.673a11.34,11.34,0,0,0,8.219,9.443Z" transform="translate(-82.521 -4.066)" fill="#41b8ea" fill-rule="evenodd"/>
        <path id="Path_83" data-name="Path 83" d="M13.41,111.889l-3.917-2.1a13.526,13.526,0,0,1-7.2-13.053l.32-4.431,3.919,2.1a13.525,13.525,0,0,1,7.194,13.046Z" transform="translate(-0.624 -25.531)" fill="#41b8ea" fill-rule="evenodd"/>
        <path id="Path_84" data-name="Path 84" d="M18.7,163.371l-4.4-.7A13.479,13.479,0,0,1,3.227,152.7l-1.156-4.307,4.409.7a13.48,13.48,0,0,1,11.068,9.972Z" transform="translate(-0.573 -41.043)" fill="#41b8ea" fill-rule="evenodd"/>
        <path id="Path_85" data-name="Path 85" d="M40.6,208.655l-4.377.851a13.479,13.479,0,0,1-13.82-5.582l-2.562-3.656,4.385-.845A13.491,13.491,0,0,1,38.036,205Z" transform="translate(-5.487 -55.085)" fill="#41b8ea" fill-rule="evenodd"/>
        <path id="Path_86" data-name="Path 86" d="M76.715,242.886l-3.731,2.389a13.5,13.5,0,0,1-14.908-.1l-3.714-2.442,3.751-2.394a13.494,13.494,0,0,1,14.9.1Z" transform="translate(-15.036 -65.868)" fill="#41b8ea" fill-rule="evenodd"/>
        <path id="Path_87" data-name="Path 87" d="M28.161,67.8l2.115-3.858A13.512,13.512,0,0,1,43.407,56.88l4.387.362L45.672,61.1a13.528,13.528,0,0,1-13.123,7.05Z" transform="translate(-7.789 -15.719)" fill="#41b8ea" fill-rule="evenodd"/>
        <path id="Path_88" data-name="Path 88" d="M18.788,113.034l.731-4.324A13.487,13.487,0,0,1,29.592,97.727l4.252-1.1-.737,4.334a13.491,13.491,0,0,1-10.071,10.976Z" transform="translate(-5.196 -26.725)" fill="#41b8ea" fill-rule="evenodd"/>
        <path id="Path_89" data-name="Path 89" d="M26.032,160.661l-.862-4.3A13.491,13.491,0,0,1,30.654,142.5l3.584-2.551.859,4.319a13.5,13.5,0,0,1-5.488,13.844Z" transform="translate(-6.884 -38.709)" fill="#41b8ea" fill-rule="evenodd"/>
        <path id="Path_90" data-name="Path 90" d="M47.933,202.909l-2.245-3.794a13.492,13.492,0,0,1,.617-14.889l2.547-3.6,2.243,3.8a13.5,13.5,0,0,1-.619,14.879Z" transform="translate(-12.099 -49.958)" fill="#41b8ea" fill-rule="evenodd"/>
        <path id="Path_91" data-name="Path 91" d="M83.017,235.88l-3.486-2.729a13.484,13.484,0,0,1-4.855-14.091l1.071-4.3,3.493,2.737a13.5,13.5,0,0,1,4.847,14.083Z" transform="translate(-20.537 -59.399)" fill="#41b8ea" fill-rule="evenodd"/>
        <path id="Path_92" data-name="Path 92" d="M36.033,40.791,33.67,37.073A13.5,13.5,0,0,1,33.8,22.168l2.434-3.678L38.6,22.218a13.511,13.511,0,0,1-.136,14.891Z" transform="translate(-8.71 -5.114)" fill="#41b8ea" fill-rule="evenodd"/>
        <path id="Path_93" data-name="Path 93" d="M17.013,87.067,13.5,84.378A13.493,13.493,0,0,1,8.5,70.33l1.031-4.314,3.52,2.706a13.512,13.512,0,0,1,4.982,14.034Z" transform="translate(-2.244 -18.259)" fill="#41b8ea" fill-rule="evenodd"/>
        <path id="Path_94" data-name="Path 94" d="M13.83,137.533,9.618,136.1A13.481,13.481,0,0,1,.4,124.381L0,119.949l4.217,1.44A13.477,13.477,0,0,1,13.424,133.1Z" transform="translate(0 -33.176)" fill="#41b8ea" fill-rule="evenodd"/>
        <path id="Path_95" data-name="Path 95" d="M27.844,187.325l-4.455.128a13.492,13.492,0,0,1-12.734-7.747l-1.937-4.024,4.468-.125A13.484,13.484,0,0,1,25.91,183.3Z" transform="translate(-2.411 -48.555)" fill="#41b8ea" fill-rule="evenodd"/>
        <path id="Path_96" data-name="Path 96" d="M57.2,227.583l-4.146,1.61a13.565,13.565,0,0,1-14.595-3.034L35.3,223.027l4.153-1.613a13.568,13.568,0,0,1,14.585,3.037Z" transform="translate(-9.764 -60.978)" fill="#41b8ea" fill-rule="evenodd"/>
        <path id="Path_97" data-name="Path 97" d="M38.81,46.615l2.744-3.445a13.485,13.485,0,0,1,14.138-4.72l4.276,1.108-2.759,3.451a13.479,13.479,0,0,1-14.132,4.714Z" transform="translate(-10.734 -10.508)" fill="#41b8ea" fill-rule="evenodd"/>
        <path id="Path_98" data-name="Path 98" d="M21.352,90.054l1.484-4.138A13.494,13.494,0,0,1,34.675,76.87l4.385-.34-1.484,4.143a13.5,13.5,0,0,1-11.839,9.041Z" transform="translate(-5.906 -21.167)" fill="#41b8ea" fill-rule="evenodd"/>
        <path id="Path_99" data-name="Path 99" d="M20.457,136.762l-.079-4.381a13.487,13.487,0,0,1,7.876-12.652l3.968-1.863.082,4.388A13.474,13.474,0,0,1,24.428,134.9Z" transform="translate(-5.636 -32.6)" fill="#41b8ea" fill-rule="evenodd"/>
        <path id="Path_100" data-name="Path 100" d="M35.188,182.887l-1.533-4.107A13.515,13.515,0,0,1,36.9,164.229l3.132-3.07,1.533,4.114a13.511,13.511,0,0,1-3.249,14.544Z" transform="translate(-9.064 -44.574)" fill="#41b8ea" fill-rule="evenodd"/>
        <path id="Path_101" data-name="Path 101" d="M63.981,220.931l-2.848-3.368a13.511,13.511,0,0,1-1.877-14.788l1.921-3.975,2.85,3.377a13.521,13.521,0,0,1,1.87,14.777Z" transform="translate(-16.004 -54.985)" fill="#41b8ea" fill-rule="evenodd"/>
        <path id="Path_102" data-name="Path 102" d="M24.517,63.158,21.55,59.889a13.5,13.5,0,0,1-2.395-14.714l1.779-4.045,2.97,3.275a13.5,13.5,0,0,1,2.387,14.7Z" transform="translate(-4.969 -11.376)" fill="#41b8ea" fill-rule="evenodd"/>
        <path id="Path_103" data-name="Path 103" d="M48.1,30.116l.658-4.668A11.33,11.33,0,0,1,56.981,16l4.535-1.3-.663,4.674a11.334,11.334,0,0,1-8.219,9.441Z" transform="translate(-13.304 -4.066)" fill="#41b8ea" fill-rule="evenodd"/>
      </g>
    </g>
    <path id="Path_1654" data-name="Path 1654" d="M-36.322,0l1.534-4.81h-3.718L-40.014,0h-3.042l1.508-4.81h-2.34V-7.54h3.2l1.04-3.406h-2.34v-2.73h3.224l1.456-4.784h3.094l-1.508,4.784h3.692l1.482-4.784h3.068l-1.508,4.784h2.314v2.73h-3.172L-30.914-7.54h2.366v2.73h-3.224L-33.28,0Zm-.26-10.946L-37.648-7.54h3.718l1.014-3.406ZM-22.048,0V-14.95h-3.224v-3.51h6.786V0Zm13.6,0V-18.46h6.76a5.324,5.324,0,0,1,3.9,1.573A5.137,5.137,0,0,1,3.8-13.1,4.232,4.232,0,0,1,2.34-9.8,4.549,4.549,0,0,1,5.07-5.434,5.133,5.133,0,0,1,3.432-1.56,5.687,5.687,0,0,1-.65,0Zm3.77-3.458H-.91A2.372,2.372,0,0,0,.78-4.043,1.99,1.99,0,0,0,1.4-5.564,2.031,2.031,0,0,0,.78-7.1,2.341,2.341,0,0,0-.91-7.7H-4.68Zm0-7.436h2.626a2.17,2.17,0,0,0,1.586-.585,1.97,1.97,0,0,0,.6-1.469,2,2,0,0,0-.611-1.469,2.129,2.129,0,0,0-1.573-.611H-4.68ZM13.754.286A6.856,6.856,0,0,1,8.827-1.586,6.479,6.479,0,0,1,6.864-6.5a6.555,6.555,0,0,1,1.95-4.849A6.654,6.654,0,0,1,13.7-13.286a6.517,6.517,0,0,1,4.55,1.677A6.051,6.051,0,0,1,20.1-6.89a9.849,9.849,0,0,1-.052,1.222H10.322a2.771,2.771,0,0,0,1.131,1.989,3.827,3.827,0,0,0,2.327.715A3.712,3.712,0,0,0,17.134-4.6l2.652,1.976A6.83,6.83,0,0,1,13.754.286Zm-3.3-8.372h6.084a2.619,2.619,0,0,0-1.053-1.69,3.21,3.21,0,0,0-1.885-.572,3.688,3.688,0,0,0-2,.572A2.513,2.513,0,0,0,10.452-8.086ZM27.092.286a5.966,5.966,0,0,1-5.356-2.5L24.18-4.29a3.183,3.183,0,0,0,2.912,1.508,2.04,2.04,0,0,0,1.014-.234.757.757,0,0,0,.416-.7.839.839,0,0,0-.351-.689,4.411,4.411,0,0,0-1.391-.559L25.818-5.2A5.132,5.132,0,0,1,23.1-6.76a3.689,3.689,0,0,1-.871-2.6,3.6,3.6,0,0,1,1.417-2.847,5.426,5.426,0,0,1,3.471-1.079,5.107,5.107,0,0,1,4.5,2.184l-2.34,1.9a2.737,2.737,0,0,0-2.21-1.144,1.735,1.735,0,0,0-.91.234.724.724,0,0,0-.39.65q0,.78,1.274,1.118l1.222.364q3.77,1.014,3.77,4.03a3.821,3.821,0,0,1-1.4,3.042A5.262,5.262,0,0,1,27.092.286ZM41.21.156a5.4,5.4,0,0,1-3.666-1.2,4.4,4.4,0,0,1-1.378-3.51V-9.88H33.02V-13h3.146v-3.9h3.562V-13h3.926v3.12H39.728v4.628a2.394,2.394,0,0,0,.481,1.677,1.974,1.974,0,0,0,1.495.507A3.766,3.766,0,0,0,43.5-3.51L44.564-.6A7,7,0,0,1,41.21.156ZM-29.159,29V14.128h-4.914V10.54H-20.4v3.588h-4.966V29Zm9.022,0V16h3.562v1.56a2.8,2.8,0,0,1,1.183-1.222,3.569,3.569,0,0,1,1.833-.494,4.445,4.445,0,0,1,1.508.234l-.546,3.354a2.912,2.912,0,0,0-1.092-.156,3.115,3.115,0,0,0-2.886,1.456V29Zm15.21.286A5.958,5.958,0,0,1-9.542,27.3a6.883,6.883,0,0,1-1.807-4.8,6.883,6.883,0,0,1,1.807-4.8,5.958,5.958,0,0,1,4.615-1.989A4.607,4.607,0,0,1-1.6,16.936V16H1.963V29H-1.6v-.962A4.5,4.5,0,0,1-4.927,29.286Zm.52-3.25A3.3,3.3,0,0,0-1.6,24.606V20.368a3.314,3.314,0,0,0-2.808-1.4,2.984,2.984,0,0,0-2.34,1.027,3.649,3.649,0,0,0-.91,2.509,3.649,3.649,0,0,0,.91,2.509A2.984,2.984,0,0,0-4.407,26.036Zm15.392,3.25A5.958,5.958,0,0,1,6.37,27.3a6.883,6.883,0,0,1-1.807-4.8A6.883,6.883,0,0,1,6.37,17.7a5.958,5.958,0,0,1,4.615-1.989,4.607,4.607,0,0,1,3.328,1.222V10.02h3.562V29H14.313v-.962A4.5,4.5,0,0,1,10.985,29.286Zm.52-3.25a3.3,3.3,0,0,0,2.808-1.43V20.368a3.314,3.314,0,0,0-2.808-1.4,2.984,2.984,0,0,0-2.34,1.027,3.914,3.914,0,0,0,0,5.018A2.984,2.984,0,0,0,11.505,26.036Zm15.86,3.25a6.856,6.856,0,0,1-4.927-1.872A6.479,6.479,0,0,1,20.475,22.5a6.555,6.555,0,0,1,1.95-4.849,6.654,6.654,0,0,1,4.888-1.937,6.517,6.517,0,0,1,4.55,1.677,6.051,6.051,0,0,1,1.846,4.719,9.849,9.849,0,0,1-.052,1.222H23.933a2.772,2.772,0,0,0,1.131,1.989,3.827,3.827,0,0,0,2.327.715A3.712,3.712,0,0,0,30.745,24.4L33.4,26.374A6.83,6.83,0,0,1,27.365,29.286Zm-3.3-8.372h6.084a2.619,2.619,0,0,0-1.053-1.69,3.21,3.21,0,0,0-1.885-.572,3.688,3.688,0,0,0-2,.572A2.513,2.513,0,0,0,24.063,20.914ZM-59.748,58V39.54h11.492v3.588h-7.722v3.8h6.162v3.588h-6.162v3.9h7.722V58Zm23.114,0-3.016-3.822L-42.666,58h-4.29l5.044-6.37L-46.826,45h4.212l2.938,3.978L-36.738,45H-32.5l-4.914,6.63L-32.37,58Zm11.362.286A6.856,6.856,0,0,1-30.2,56.414,6.479,6.479,0,0,1-32.162,51.5a6.555,6.555,0,0,1,1.95-4.849,6.654,6.654,0,0,1,4.888-1.937,6.517,6.517,0,0,1,4.55,1.677,6.051,6.051,0,0,1,1.846,4.719,9.849,9.849,0,0,1-.052,1.222H-28.7a2.772,2.772,0,0,0,1.131,1.989,3.827,3.827,0,0,0,2.327.715A3.712,3.712,0,0,0-21.892,53.4l2.652,1.976A6.83,6.83,0,0,1-25.272,58.286Zm-3.3-8.372h6.084a2.619,2.619,0,0,0-1.053-1.69,3.21,3.21,0,0,0-1.885-.572,3.688,3.688,0,0,0-2,.572A2.513,2.513,0,0,0-28.574,49.914Zm18.33,8.372a6.753,6.753,0,0,1-4.9-1.937A6.489,6.489,0,0,1-17.134,51.5a6.489,6.489,0,0,1,1.989-4.849,6.753,6.753,0,0,1,4.9-1.937,6.779,6.779,0,0,1,3.653,1.027,6.753,6.753,0,0,1,2.509,2.717l-3.094,1.664a3.644,3.644,0,0,0-1.209-1.508,3.094,3.094,0,0,0-1.859-.572,3.131,3.131,0,0,0-2.353.988,3.424,3.424,0,0,0-.949,2.47,3.424,3.424,0,0,0,.949,2.47,3.131,3.131,0,0,0,2.353.988,3.094,3.094,0,0,0,1.859-.572,3.644,3.644,0,0,0,1.209-1.508l3.094,1.664a6.753,6.753,0,0,1-2.509,2.717A6.779,6.779,0,0,1-10.244,58.286ZM10.062,45V58H6.5V56.96a4.25,4.25,0,0,1-3.2,1.326A4.886,4.886,0,0,1-.559,56.713,6.069,6.069,0,0,1-1.95,52.54V45H1.612v6.942q0,3.094,2.444,3.094A2.843,2.843,0,0,0,6.5,53.554V45Zm10.27,13.156a5.4,5.4,0,0,1-3.666-1.2,4.4,4.4,0,0,1-1.378-3.51V48.12H12.142V45h3.146V41.1H18.85V45h3.926v3.12H18.85v4.628a2.394,2.394,0,0,0,.481,1.677,1.974,1.974,0,0,0,1.495.507,3.766,3.766,0,0,0,1.794-.442L23.686,57.4A7,7,0,0,1,20.332,58.156Zm6.994-14.768a2.192,2.192,0,0,1-1.586-.663,2.229,2.229,0,0,1,0-3.2,2.266,2.266,0,1,1,1.586,3.861ZM25.558,58V45H29.12V58Zm17.81-1.677a6.938,6.938,0,0,1-9.672,0,6.795,6.795,0,0,1,0-9.633,6.906,6.906,0,0,1,9.672,0,6.795,6.795,0,0,1,0,9.633Zm-4.836-1.365a3.038,3.038,0,0,0,2.3-.975,3.8,3.8,0,0,0,0-4.966,3.233,3.233,0,0,0-4.628,0,3.8,3.8,0,0,0,0,4.966A3.068,3.068,0,0,0,38.532,54.958ZM47.944,58V45h3.562v1.092a4.527,4.527,0,0,1,3.536-1.378,4.823,4.823,0,0,1,3.809,1.573,6.069,6.069,0,0,1,1.391,4.173V58H56.68V51.058a3.735,3.735,0,0,0-.611-2.275,2.112,2.112,0,0,0-1.807-.819,3.055,3.055,0,0,0-2.756,1.482V58Z" transform="translate(806 3367)" fill="#606060"/>
    <path id="Path_1653" data-name="Path 1653" d="M-38.936,0V-11.36h1.216V0Zm3.856,0V-8h1.12v1.12a2.879,2.879,0,0,1,2.624-1.28,2.919,2.919,0,0,1,2.168.848,3.13,3.13,0,0,1,.84,2.3V0h-1.12V-4.848a2.33,2.33,0,0,0-.568-1.68,2.081,2.081,0,0,0-1.576-.592,2.318,2.318,0,0,0-1.512.488,2.658,2.658,0,0,0-.856,1.3V0Zm11.392,0-3.744-8h1.248l2.928,6.352L-20.328-8h1.264l-3.744,8Zm9.12.16a3.923,3.923,0,0,1-2.976-1.192A4.134,4.134,0,0,1-18.68-4a4.079,4.079,0,0,1,1.168-2.96,3.974,3.974,0,0,1,2.976-1.2,3.618,3.618,0,0,1,2.688,1.088,4.034,4.034,0,0,1,1.072,2.96v.3h-6.752A2.849,2.849,0,0,0-16.7-1.72a2.867,2.867,0,0,0,2.128.84,2.985,2.985,0,0,0,1.576-.376,3.2,3.2,0,0,0,1.064-1.128l.912.592A3.819,3.819,0,0,1-14.568.16ZM-17.432-4.8h5.488a2.68,2.68,0,0,0-.88-1.7,2.594,2.594,0,0,0-1.76-.624,2.918,2.918,0,0,0-1.848.632A2.673,2.673,0,0,0-17.432-4.8ZM-6.7.16a3.683,3.683,0,0,1-1.96-.5A2.63,2.63,0,0,1-9.8-1.808l1.008-.416A1.742,1.742,0,0,0-8-1.216a2.476,2.476,0,0,0,1.32.368,1.81,1.81,0,0,0,1.112-.328,1.065,1.065,0,0,0,.44-.9,1.072,1.072,0,0,0-.344-.808,3.161,3.161,0,0,0-1.16-.6L-7.5-3.76a2.3,2.3,0,0,1-1.92-2.272,1.847,1.847,0,0,1,.76-1.552A3.075,3.075,0,0,1-6.744-8.16,2.733,2.733,0,0,1-4.152-6.752l-.9.56a2,2,0,0,0-1.76-.976,1.774,1.774,0,0,0-1.04.312A.921.921,0,0,0-8.3-6.08q0,.9,1.248,1.3l.912.288q2.128.672,2.128,2.32a2.11,2.11,0,0,1-.744,1.72A2.949,2.949,0,0,1-6.7.16ZM.92.08A2.4,2.4,0,0,1-.736-.512,2.174,2.174,0,0,1-1.4-2.224v-4.72H-3.432V-8H-1.4v-2.224H-.28V-8h2.5v1.056H-.28V-2.32A1.382,1.382,0,0,0,.08-1.264a1.317,1.317,0,0,0,.936.336,2.387,2.387,0,0,0,1.184-.3l.336.96A3.443,3.443,0,0,1,.92.08ZM14.168,0V-4.832a2.478,2.478,0,0,0-.528-1.68,1.79,1.79,0,0,0-1.424-.608,2.009,2.009,0,0,0-1.352.472,2.614,2.614,0,0,0-.792,1.288,2.646,2.646,0,0,1,.032.352V0H8.984V-4.832a2.478,2.478,0,0,0-.528-1.68A1.79,1.79,0,0,0,7.032-7.12a2.1,2.1,0,0,0-1.32.424A2.33,2.33,0,0,0,4.92-5.552V0H3.8V-8H4.92v.928A2.769,2.769,0,0,1,7.3-8.16,2.546,2.546,0,0,1,9.672-6.752a3.037,3.037,0,0,1,2.7-1.408,2.756,2.756,0,0,1,2.128.848,3.261,3.261,0,0,1,.784,2.3V0Zm6.88.16a3.923,3.923,0,0,1-2.976-1.192A4.134,4.134,0,0,1,16.936-4,4.079,4.079,0,0,1,18.1-6.96a3.974,3.974,0,0,1,2.976-1.2,3.618,3.618,0,0,1,2.688,1.088,4.034,4.034,0,0,1,1.072,2.96v.3H18.088A2.849,2.849,0,0,0,18.92-1.72a2.867,2.867,0,0,0,2.128.84,2.985,2.985,0,0,0,1.576-.376,3.2,3.2,0,0,0,1.064-1.128l.912.592A3.819,3.819,0,0,1,21.048.16ZM18.184-4.8h5.488a2.68,2.68,0,0,0-.88-1.7,2.594,2.594,0,0,0-1.76-.624,2.918,2.918,0,0,0-1.848.632A2.673,2.673,0,0,0,18.184-4.8Zm8.4,4.8V-8H27.7v1.12a2.879,2.879,0,0,1,2.624-1.28,2.919,2.919,0,0,1,2.168.848,3.13,3.13,0,0,1,.84,2.3V0h-1.12V-4.848a2.33,2.33,0,0,0-.568-1.68,2.081,2.081,0,0,0-1.576-.592,2.318,2.318,0,0,0-1.512.488,2.659,2.659,0,0,0-.856,1.3V0ZM38.7.08A2.4,2.4,0,0,1,37.04-.512a2.174,2.174,0,0,1-.664-1.712v-4.72H34.344V-8h2.032v-2.224H37.5V-8h2.5v1.056H37.5V-2.32a1.382,1.382,0,0,0,.36,1.056,1.317,1.317,0,0,0,.936.336,2.387,2.387,0,0,0,1.184-.3l.336.96A3.443,3.443,0,0,1,38.7.08ZM-45.96,17V6.792h-3.68V5.64h8.56V6.792h-3.68V17Zm4.688,0V9h1.12v1.248a2.375,2.375,0,0,1,.9-.936,2.481,2.481,0,0,1,1.344-.392,2.9,2.9,0,0,1,.656.064l-.144,1.152a2.282,2.282,0,0,0-.688-.1,1.95,1.95,0,0,0-1.264.472,2.446,2.446,0,0,0-.8,1.272V17Zm8.432.16a3.923,3.923,0,0,1-2.976-1.192A4.134,4.134,0,0,1-36.952,13a4.079,4.079,0,0,1,1.168-2.96,3.974,3.974,0,0,1,2.976-1.2A3.618,3.618,0,0,1-30.12,9.928a4.034,4.034,0,0,1,1.072,2.96v.3H-35.8a2.849,2.849,0,0,0,.832,2.088,2.867,2.867,0,0,0,2.128.84,2.985,2.985,0,0,0,1.576-.376A3.2,3.2,0,0,0-30.2,14.616l.912.592A3.819,3.819,0,0,1-32.84,17.16ZM-35.7,12.2h5.488a2.68,2.68,0,0,0-.88-1.7,2.594,2.594,0,0,0-1.76-.624,2.918,2.918,0,0,0-1.848.632A2.673,2.673,0,0,0-35.7,12.2Zm8.4,4.8V9h1.12v1.12A2.879,2.879,0,0,1-23.56,8.84a2.919,2.919,0,0,1,2.168.848,3.13,3.13,0,0,1,.84,2.3V17h-1.12V12.152a2.33,2.33,0,0,0-.568-1.68,2.081,2.081,0,0,0-1.576-.592,2.318,2.318,0,0,0-1.512.488,2.658,2.658,0,0,0-.856,1.3V17Zm12.448.16a3.827,3.827,0,0,1-2.9-1.208A4.133,4.133,0,0,1-18.9,13a4.133,4.133,0,0,1,1.144-2.952,3.827,3.827,0,0,1,2.9-1.208,3.591,3.591,0,0,1,2.784,1.136V5.32h1.12V17h-1.12v-.976A3.591,3.591,0,0,1-14.856,17.16Zm.048-1.04a3.246,3.246,0,0,0,1.632-.4,3,3,0,0,0,1.1-1.056V11.336a3,3,0,0,0-1.1-1.056,3.246,3.246,0,0,0-1.632-.4,2.739,2.739,0,0,0-2.12.9A3.169,3.169,0,0,0-17.752,13a3.169,3.169,0,0,0,.824,2.216A2.739,2.739,0,0,0-14.808,16.12Zm8.624,1.04a3.683,3.683,0,0,1-1.96-.5,2.63,2.63,0,0,1-1.144-1.464l1.008-.416a1.742,1.742,0,0,0,.792,1.008,2.476,2.476,0,0,0,1.32.368,1.81,1.81,0,0,0,1.112-.328,1.065,1.065,0,0,0,.44-.9,1.072,1.072,0,0,0-.344-.808,3.161,3.161,0,0,0-1.16-.6l-.864-.272A2.3,2.3,0,0,1-8.9,10.968a1.847,1.847,0,0,1,.76-1.552A3.075,3.075,0,0,1-6.232,8.84,2.733,2.733,0,0,1-3.64,10.248l-.9.56A2,2,0,0,0-6.3,9.832a1.774,1.774,0,0,0-1.04.312.921.921,0,0,0-.448.776q0,.9,1.248,1.3l.912.288q2.128.672,2.128,2.32a2.11,2.11,0,0,1-.744,1.72A2.949,2.949,0,0,1-6.184,17.16ZM2.12,17V5.64H5.832A3.5,3.5,0,0,1,8.3,6.464a2.883,2.883,0,0,1,.9,2.232,2.9,2.9,0,0,1-.792,2.12,3.31,3.31,0,0,1-2.184.92L10.712,17H9.128l-4.5-5.28h-1.3V17Zm1.216-6.4H5.688q2.272,0,2.272-1.9,0-1.92-2.272-1.92H3.336ZM14.9,17.16a3.923,3.923,0,0,1-2.976-1.192A4.134,4.134,0,0,1,10.792,13a4.079,4.079,0,0,1,1.168-2.96,3.974,3.974,0,0,1,2.976-1.2,3.618,3.618,0,0,1,2.688,1.088,4.034,4.034,0,0,1,1.072,2.96v.3H11.944A2.859,2.859,0,0,0,14.9,16.12a2.985,2.985,0,0,0,1.576-.376,3.2,3.2,0,0,0,1.064-1.128l.912.592A3.819,3.819,0,0,1,14.9,17.16ZM12.04,12.2h5.488a2.68,2.68,0,0,0-.88-1.7,2.594,2.594,0,0,0-1.76-.624,2.918,2.918,0,0,0-1.848.632A2.673,2.673,0,0,0,12.04,12.2Zm8.4,7.9V9h1.12v.976A3.591,3.591,0,0,1,24.344,8.84a3.827,3.827,0,0,1,2.9,1.208A4.133,4.133,0,0,1,28.392,13a4.133,4.133,0,0,1-1.144,2.952,3.827,3.827,0,0,1-2.9,1.208,3.591,3.591,0,0,1-2.784-1.136V20.1ZM24.3,16.12a2.739,2.739,0,0,0,2.12-.9A3.169,3.169,0,0,0,27.24,13a3.169,3.169,0,0,0-.824-2.216,2.739,2.739,0,0,0-2.12-.9,3.246,3.246,0,0,0-1.632.4,3,3,0,0,0-1.1,1.056v3.328a3,3,0,0,0,1.1,1.056A3.246,3.246,0,0,0,24.3,16.12Zm12.352-.168a4.309,4.309,0,0,1-5.984,0A4.058,4.058,0,0,1,29.48,13a4.058,4.058,0,0,1,1.184-2.952,4.309,4.309,0,0,1,5.984,0A4.058,4.058,0,0,1,37.832,13,4.058,4.058,0,0,1,36.648,15.952Zm-5.176-.736a3.09,3.09,0,0,0,4.368,0A3.135,3.135,0,0,0,36.68,13a3.135,3.135,0,0,0-.84-2.216,3.09,3.09,0,0,0-4.368,0A3.135,3.135,0,0,0,30.632,13,3.135,3.135,0,0,0,31.472,15.216ZM39.592,17V9h1.12v1.248a2.375,2.375,0,0,1,.9-.936,2.481,2.481,0,0,1,1.344-.392,2.9,2.9,0,0,1,.656.064l-.144,1.152a2.282,2.282,0,0,0-.688-.1,1.95,1.95,0,0,0-1.264.472,2.446,2.446,0,0,0-.8,1.272V17Zm8.48.08a2.4,2.4,0,0,1-1.656-.592,2.174,2.174,0,0,1-.664-1.712v-4.72H43.72V9h2.032V6.776h1.12V9h2.5v1.056h-2.5V14.68a1.382,1.382,0,0,0,.36,1.056,1.317,1.317,0,0,0,.936.336,2.387,2.387,0,0,0,1.184-.3l.336.96A3.443,3.443,0,0,1,48.072,17.08Z" transform="translate(806 3478.202)" fill="#a5a5a5"/>
  </g>
</svg>
