<svg xmlns="http://www.w3.org/2000/svg" xmlns:xlink="http://www.w3.org/1999/xlink" width="264.047" height="207.042" viewBox="0 0 264.047 207.042">
  <defs>
    <clipPath id="clip-path">
      <rect id="Rectangle_6" data-name="Rectangle 6" width="264.047" height="207.042" fill="none"/>
    </clipPath>
    <clipPath id="clip-path-2">
      <rect id="Rectangle_7" data-name="Rectangle 7" width="264.047" height="207.042" fill="#41b8ea"/>
    </clipPath>
  </defs>
  <g id="Best_CFD_Broker" data-name="Best CFD Broker" transform="translate(-57 -1189)">
    <path id="Path_1662" data-name="Path 1662" d="M5.06,0,.2-15.62H3.564L6.578-5.236,9.812-15.62h2.794L15.818-5.236,18.854-15.62h3.388L17.38,0H14.52l-3.3-10.736L7.92,0ZM24.178,0V-15.62h3.19V0ZM44.792,0h-2.75L34.034-10.186V0h-3.19V-15.62h2.75L41.6-5.434V-15.62h3.19ZM62.216,0h-2.75L51.458-10.186V0h-3.19V-15.62h2.75L59.026-5.434V-15.62h3.19Zm3.476,0V-15.62h9.724v3.036H68.882v3.212H74.1v3.036H68.882v3.3h6.534V0Zm12.5,0V-15.62h5.984a4.708,4.708,0,0,1,3.465,1.32A4.458,4.458,0,0,1,88.968-11a4,4,0,0,1-3.212,4.07L91.366,0h-3.85L82.148-6.578h-.77V0Zm3.19-9.306H83.8a2.209,2.209,0,0,0,1.463-.451A1.533,1.533,0,0,0,85.8-11a1.533,1.533,0,0,0-.539-1.243,2.209,2.209,0,0,0-1.463-.451h-2.42Z" transform="translate(144 1223)" fill="#606060"/>
    <g id="Group_125" data-name="Group 125" transform="translate(11535.361 7510)">
      <g id="Group_77" data-name="Group 77">
        <path id="Path_58" data-name="Path 58" d="M134.709,0l-1.29,3.969h-4.171l3.375,2.452-1.289,3.967,3.375-2.452,3.375,2.452-1.29-3.967,3.375-2.452H136Z" transform="translate(-11480.609 -6321)" fill="#606060"/>
      </g>
    </g>
    <g id="Group_16" data-name="Group 16" transform="translate(57 1189)" clip-path="url(#clip-path-2)">
      <path id="Path_62" data-name="Path 62" d="M347.192,111.891l3.917-2.1a13.521,13.521,0,0,0,7.2-13.053l-.319-4.432-3.919,2.1a13.521,13.521,0,0,0-7.2,13.045Z" transform="translate(-95.93 -25.531)" fill="#41b8ea" fill-rule="evenodd"/>
      <path id="Path_63" data-name="Path 63" d="M339.938,163.372l4.4-.7a13.482,13.482,0,0,0,11.078-9.973l1.155-4.307-4.407.7a13.478,13.478,0,0,0-11.07,9.972Z" transform="translate(-94.021 -41.043)" fill="#41b8ea" fill-rule="evenodd"/>
      <path id="Path_64" data-name="Path 64" d="M316.465,208.656l4.376.851a13.487,13.487,0,0,0,13.822-5.582l2.561-3.655-4.385-.846A13.489,13.489,0,0,0,319.029,205Z" transform="translate(-87.529 -55.085)" fill="#41b8ea" fill-rule="evenodd"/>
      <path id="Path_65" data-name="Path 65" d="M279.739,242.887l3.732,2.39a13.5,13.5,0,0,0,14.907-.1l3.715-2.442-3.751-2.395a13.5,13.5,0,0,0-14.9.1Z" transform="translate(-77.371 -65.869)" fill="#41b8ea" fill-rule="evenodd"/>
      <path id="Path_66" data-name="Path 66" d="M329.334,67.8l-2.115-3.858a13.519,13.519,0,0,0-13.131-7.057l-4.388.363,2.123,3.861a13.526,13.526,0,0,0,13.124,7.05Z" transform="translate(-85.658 -15.719)" fill="#41b8ea" fill-rule="evenodd"/>
      <path id="Path_67" data-name="Path 67" d="M340.456,113.036l-.731-4.325a13.489,13.489,0,0,0-10.072-10.984l-4.253-1.1.737,4.333a13.488,13.488,0,0,0,10.069,10.978Z" transform="translate(-90 -26.725)" fill="#41b8ea" fill-rule="evenodd"/>
      <path id="Path_68" data-name="Path 68" d="M334.961,160.663l.862-4.3a13.493,13.493,0,0,0-5.486-13.858l-3.582-2.549-.859,4.319a13.5,13.5,0,0,0,5.486,13.843Z" transform="translate(-90.061 -38.709)" fill="#41b8ea" fill-rule="evenodd"/>
      <path id="Path_69" data-name="Path 69" d="M313.515,202.911l2.245-3.8a13.49,13.49,0,0,0-.619-14.888l-2.545-3.6-2.245,3.8a13.5,13.5,0,0,0,.62,14.879Z" transform="translate(-85.302 -49.959)" fill="#41b8ea" fill-rule="evenodd"/>
      <path id="Path_70" data-name="Path 70" d="M278.062,235.882l3.488-2.729a13.486,13.486,0,0,0,4.855-14.091l-1.073-4.3-3.49,2.739a13.492,13.492,0,0,0-4.848,14.082Z" transform="translate(-76.495 -59.399)" fill="#41b8ea" fill-rule="evenodd"/>
      <path id="Path_71" data-name="Path 71" d="M325.419,40.793l2.366-3.718a13.494,13.494,0,0,0-.133-14.9l-2.433-3.678-2.363,3.727a13.512,13.512,0,0,0,.135,14.892Z" transform="translate(-88.696 -5.115)" fill="#41b8ea" fill-rule="evenodd"/>
      <path id="Path_72" data-name="Path 72" d="M344.046,87.069l3.517-2.69a13.49,13.49,0,0,0,4.99-14.046l-1.03-4.314L348,68.723a13.514,13.514,0,0,0-4.983,14.034Z" transform="translate(-94.767 -18.26)" fill="#41b8ea" fill-rule="evenodd"/>
      <path id="Path_73" data-name="Path 73" d="M345.885,137.535l4.21-1.434a13.48,13.48,0,0,0,9.216-11.719l.4-4.432-4.215,1.44a13.482,13.482,0,0,0-9.208,11.711Z" transform="translate(-95.666 -33.176)" fill="#41b8ea" fill-rule="evenodd"/>
      <path id="Path_74" data-name="Path 74" d="M329.843,187.325l4.456.13a13.488,13.488,0,0,0,12.734-7.747l1.937-4.024-4.466-.125a13.481,13.481,0,0,0-12.724,7.746Z" transform="translate(-91.229 -48.555)" fill="#41b8ea" fill-rule="evenodd"/>
      <path id="Path_75" data-name="Path 75" d="M299.424,227.583l4.146,1.612a13.566,13.566,0,0,0,14.595-3.034l3.161-3.134-4.152-1.612a13.565,13.565,0,0,0-14.586,3.037Z" transform="translate(-82.816 -60.978)" fill="#41b8ea" fill-rule="evenodd"/>
      <path id="Path_76" data-name="Path 76" d="M318.1,46.617l-2.744-3.445a13.486,13.486,0,0,0-14.139-4.72l-4.275,1.107,2.758,3.453a13.485,13.485,0,0,0,14.134,4.714Z" transform="translate(-82.13 -10.509)" fill="#41b8ea" fill-rule="evenodd"/>
      <path id="Path_77" data-name="Path 77" d="M336.88,90.056,335.4,85.918a13.494,13.494,0,0,0-11.839-9.046l-4.385-.34,1.484,4.143a13.489,13.489,0,0,0,11.837,9.04Z" transform="translate(-88.277 -21.168)" fill="#41b8ea" fill-rule="evenodd"/>
      <path id="Path_78" data-name="Path 78" d="M339.984,136.764l.079-4.381a13.49,13.49,0,0,0-7.876-12.653l-3.968-1.861-.082,4.386a13.474,13.474,0,0,0,7.874,12.648Z" transform="translate(-90.757 -32.6)" fill="#41b8ea" fill-rule="evenodd"/>
      <path id="Path_79" data-name="Path 79" d="M326.112,182.887l1.531-4.106a13.513,13.513,0,0,0-3.246-14.55l-3.132-3.07-1.533,4.114a13.512,13.512,0,0,0,3.248,14.544Z" transform="translate(-88.188 -44.575)" fill="#41b8ea" fill-rule="evenodd"/>
      <path id="Path_80" data-name="Path 80" d="M297.419,220.931l2.848-3.368a13.511,13.511,0,0,0,1.874-14.788l-1.919-3.975-2.851,3.377a13.52,13.52,0,0,0-1.869,14.777Z" transform="translate(-81.347 -54.985)" fill="#41b8ea" fill-rule="evenodd"/>
      <path id="Path_81" data-name="Path 81" d="M336.845,63.16l2.968-3.269a13.5,13.5,0,0,0,2.393-14.714l-1.777-4.043-2.97,3.275a13.5,13.5,0,0,0-2.387,14.7Z" transform="translate(-92.346 -11.377)" fill="#41b8ea" fill-rule="evenodd"/>
      <path id="Path_82" data-name="Path 82" d="M311.771,30.117l-.657-4.668A11.327,11.327,0,0,0,302.892,16l-4.534-1.3.661,4.673a11.34,11.34,0,0,0,8.219,9.443Z" transform="translate(-82.521 -4.066)" fill="#41b8ea" fill-rule="evenodd"/>
      <path id="Path_83" data-name="Path 83" d="M13.41,111.889l-3.917-2.1a13.526,13.526,0,0,1-7.2-13.053l.32-4.431,3.919,2.1a13.525,13.525,0,0,1,7.194,13.046Z" transform="translate(-0.624 -25.531)" fill="#41b8ea" fill-rule="evenodd"/>
      <path id="Path_84" data-name="Path 84" d="M18.7,163.371l-4.4-.7A13.479,13.479,0,0,1,3.227,152.7l-1.156-4.307,4.409.7a13.48,13.48,0,0,1,11.068,9.972Z" transform="translate(-0.573 -41.043)" fill="#41b8ea" fill-rule="evenodd"/>
      <path id="Path_85" data-name="Path 85" d="M40.6,208.655l-4.377.851a13.479,13.479,0,0,1-13.82-5.582l-2.562-3.656,4.385-.845A13.491,13.491,0,0,1,38.036,205Z" transform="translate(-5.487 -55.085)" fill="#41b8ea" fill-rule="evenodd"/>
      <path id="Path_86" data-name="Path 86" d="M76.715,242.886l-3.731,2.389a13.5,13.5,0,0,1-14.908-.1l-3.714-2.442,3.751-2.394a13.494,13.494,0,0,1,14.9.1Z" transform="translate(-15.036 -65.868)" fill="#41b8ea" fill-rule="evenodd"/>
      <path id="Path_87" data-name="Path 87" d="M28.161,67.8l2.115-3.858A13.512,13.512,0,0,1,43.407,56.88l4.387.362L45.672,61.1a13.528,13.528,0,0,1-13.123,7.05Z" transform="translate(-7.789 -15.719)" fill="#41b8ea" fill-rule="evenodd"/>
      <path id="Path_88" data-name="Path 88" d="M18.788,113.034l.731-4.324A13.487,13.487,0,0,1,29.592,97.727l4.252-1.1-.737,4.334a13.491,13.491,0,0,1-10.071,10.976Z" transform="translate(-5.196 -26.725)" fill="#41b8ea" fill-rule="evenodd"/>
      <path id="Path_89" data-name="Path 89" d="M26.032,160.661l-.862-4.3A13.491,13.491,0,0,1,30.654,142.5l3.584-2.551.859,4.319a13.5,13.5,0,0,1-5.488,13.844Z" transform="translate(-6.884 -38.709)" fill="#41b8ea" fill-rule="evenodd"/>
      <path id="Path_90" data-name="Path 90" d="M47.933,202.909l-2.245-3.794a13.492,13.492,0,0,1,.617-14.889l2.547-3.6,2.243,3.8a13.5,13.5,0,0,1-.619,14.879Z" transform="translate(-12.099 -49.958)" fill="#41b8ea" fill-rule="evenodd"/>
      <path id="Path_91" data-name="Path 91" d="M83.017,235.88l-3.486-2.729a13.484,13.484,0,0,1-4.855-14.091l1.071-4.3,3.493,2.737a13.5,13.5,0,0,1,4.847,14.083Z" transform="translate(-20.537 -59.399)" fill="#41b8ea" fill-rule="evenodd"/>
      <path id="Path_92" data-name="Path 92" d="M36.033,40.791,33.67,37.073A13.5,13.5,0,0,1,33.8,22.168l2.434-3.678L38.6,22.218a13.511,13.511,0,0,1-.136,14.891Z" transform="translate(-8.71 -5.114)" fill="#41b8ea" fill-rule="evenodd"/>
      <path id="Path_93" data-name="Path 93" d="M17.013,87.067,13.5,84.378A13.493,13.493,0,0,1,8.5,70.33l1.031-4.314,3.52,2.706a13.512,13.512,0,0,1,4.982,14.034Z" transform="translate(-2.244 -18.259)" fill="#41b8ea" fill-rule="evenodd"/>
      <path id="Path_94" data-name="Path 94" d="M13.83,137.533,9.618,136.1A13.481,13.481,0,0,1,.4,124.381L0,119.949l4.217,1.44A13.477,13.477,0,0,1,13.424,133.1Z" transform="translate(0 -33.176)" fill="#41b8ea" fill-rule="evenodd"/>
      <path id="Path_95" data-name="Path 95" d="M27.844,187.325l-4.455.128a13.492,13.492,0,0,1-12.734-7.747l-1.937-4.024,4.468-.125A13.484,13.484,0,0,1,25.91,183.3Z" transform="translate(-2.411 -48.555)" fill="#41b8ea" fill-rule="evenodd"/>
      <path id="Path_96" data-name="Path 96" d="M57.2,227.583l-4.146,1.61a13.565,13.565,0,0,1-14.595-3.034L35.3,223.027l4.153-1.613a13.568,13.568,0,0,1,14.585,3.037Z" transform="translate(-9.764 -60.978)" fill="#41b8ea" fill-rule="evenodd"/>
      <path id="Path_97" data-name="Path 97" d="M38.81,46.615l2.744-3.445a13.485,13.485,0,0,1,14.138-4.72l4.276,1.108-2.759,3.451a13.479,13.479,0,0,1-14.132,4.714Z" transform="translate(-10.734 -10.508)" fill="#41b8ea" fill-rule="evenodd"/>
      <path id="Path_98" data-name="Path 98" d="M21.352,90.054l1.484-4.138A13.494,13.494,0,0,1,34.675,76.87l4.385-.34-1.484,4.143a13.5,13.5,0,0,1-11.839,9.041Z" transform="translate(-5.906 -21.167)" fill="#41b8ea" fill-rule="evenodd"/>
      <path id="Path_99" data-name="Path 99" d="M20.457,136.762l-.079-4.381a13.487,13.487,0,0,1,7.876-12.652l3.968-1.863.082,4.388A13.474,13.474,0,0,1,24.428,134.9Z" transform="translate(-5.636 -32.6)" fill="#41b8ea" fill-rule="evenodd"/>
      <path id="Path_100" data-name="Path 100" d="M35.188,182.887l-1.533-4.107A13.515,13.515,0,0,1,36.9,164.229l3.132-3.07,1.533,4.114a13.511,13.511,0,0,1-3.249,14.544Z" transform="translate(-9.064 -44.574)" fill="#41b8ea" fill-rule="evenodd"/>
      <path id="Path_101" data-name="Path 101" d="M63.981,220.931l-2.848-3.368a13.511,13.511,0,0,1-1.877-14.788l1.921-3.975,2.85,3.377a13.521,13.521,0,0,1,1.87,14.777Z" transform="translate(-16.004 -54.985)" fill="#41b8ea" fill-rule="evenodd"/>
      <path id="Path_102" data-name="Path 102" d="M24.517,63.158,21.55,59.889a13.5,13.5,0,0,1-2.395-14.714l1.779-4.045,2.97,3.275a13.5,13.5,0,0,1,2.387,14.7Z" transform="translate(-4.969 -11.376)" fill="#41b8ea" fill-rule="evenodd"/>
      <path id="Path_103" data-name="Path 103" d="M48.1,30.116l.658-4.668A11.33,11.33,0,0,1,56.981,16l4.535-1.3-.663,4.674a11.334,11.334,0,0,1-8.219,9.441Z" transform="translate(-13.304 -4.066)" fill="#41b8ea" fill-rule="evenodd"/>
    </g>
    <path id="Path_1661" data-name="Path 1661" d="M-28.652,0l1.534-4.81h-3.718L-32.344,0h-3.042l1.508-4.81h-2.34V-7.54h3.2l1.04-3.406h-2.34v-2.73H-31.1l1.456-4.784h3.094l-1.508,4.784h3.692l1.482-4.784h3.068l-1.508,4.784h2.314v2.73h-3.172L-23.244-7.54h2.366v2.73H-24.1L-25.61,0Zm-.26-10.946L-29.978-7.54h3.718l1.014-3.406ZM-16.12,0V-18.46h6.76a5.324,5.324,0,0,1,3.9,1.573A5.137,5.137,0,0,1-3.874-13.1,4.232,4.232,0,0,1-5.33-9.8,4.549,4.549,0,0,1-2.6-5.434,5.133,5.133,0,0,1-4.238-1.56,5.687,5.687,0,0,1-8.32,0Zm3.77-3.458h3.77a2.372,2.372,0,0,0,1.69-.585,1.99,1.99,0,0,0,.624-1.521A2.031,2.031,0,0,0-6.89-7.1a2.341,2.341,0,0,0-1.69-.6h-3.77Zm0-7.436h2.626a2.17,2.17,0,0,0,1.586-.585,1.97,1.97,0,0,0,.6-1.469,2,2,0,0,0-.611-1.469,2.129,2.129,0,0,0-1.573-.611H-12.35ZM6.084.286A6.856,6.856,0,0,1,1.157-1.586,6.479,6.479,0,0,1-.806-6.5a6.555,6.555,0,0,1,1.95-4.849,6.654,6.654,0,0,1,4.888-1.937,6.517,6.517,0,0,1,4.55,1.677A6.051,6.051,0,0,1,12.428-6.89a9.849,9.849,0,0,1-.052,1.222H2.652A2.772,2.772,0,0,0,3.783-3.679a3.827,3.827,0,0,0,2.327.715A3.712,3.712,0,0,0,9.464-4.6l2.652,1.976A6.83,6.83,0,0,1,6.084.286Zm-3.3-8.372H8.866a2.619,2.619,0,0,0-1.053-1.69,3.21,3.21,0,0,0-1.885-.572,3.688,3.688,0,0,0-2,.572A2.513,2.513,0,0,0,2.782-8.086ZM19.422.286a5.966,5.966,0,0,1-5.356-2.5L16.51-4.29a3.183,3.183,0,0,0,2.912,1.508,2.04,2.04,0,0,0,1.014-.234.757.757,0,0,0,.416-.7.839.839,0,0,0-.351-.689,4.411,4.411,0,0,0-1.391-.559L18.148-5.2a5.132,5.132,0,0,1-2.717-1.56,3.689,3.689,0,0,1-.871-2.6,3.6,3.6,0,0,1,1.417-2.847,5.426,5.426,0,0,1,3.471-1.079,5.107,5.107,0,0,1,4.5,2.184l-2.34,1.9a2.737,2.737,0,0,0-2.21-1.144,1.735,1.735,0,0,0-.91.234.724.724,0,0,0-.39.65q0,.78,1.274,1.118l1.222.364q3.77,1.014,3.77,4.03a3.821,3.821,0,0,1-1.4,3.042A5.262,5.262,0,0,1,19.422.286ZM33.54.156a5.4,5.4,0,0,1-3.666-1.2A4.4,4.4,0,0,1,28.5-4.55V-9.88H25.35V-13H28.5v-3.9h3.562V-13h3.926v3.12H32.058v4.628a2.394,2.394,0,0,0,.481,1.677,1.974,1.974,0,0,0,1.495.507,3.766,3.766,0,0,0,1.794-.442L36.894-.6A7,7,0,0,1,33.54.156ZM-58.669,29.312a9.194,9.194,0,0,1-6.747-2.8,9.194,9.194,0,0,1-2.795-6.747,9.194,9.194,0,0,1,2.795-6.747,9.194,9.194,0,0,1,6.747-2.8,9.8,9.8,0,0,1,5.044,1.339,9.023,9.023,0,0,1,3.484,3.575l-3.276,1.82a5.767,5.767,0,0,0-5.252-3.094A5.458,5.458,0,0,0-62.738,15.6a5.776,5.776,0,0,0-1.677,4.173,5.776,5.776,0,0,0,1.677,4.173,5.458,5.458,0,0,0,4.069,1.729,5.767,5.767,0,0,0,5.252-3.094l3.276,1.82A8.938,8.938,0,0,1-53.6,27.986,9.838,9.838,0,0,1-58.669,29.312ZM-47.541,29V10.54h11.232v3.588h-7.462V17.95h5.85v3.588h-5.85V29Zm14.092,0V10.54h6.084a9.3,9.3,0,0,1,6.734,2.678,8.785,8.785,0,0,1,2.756,6.552,8.785,8.785,0,0,1-2.756,6.552A9.3,9.3,0,0,1-27.365,29Zm3.77-3.458h2.314a5.42,5.42,0,0,0,4.108-1.664,5.726,5.726,0,0,0,1.586-4.108,5.726,5.726,0,0,0-1.586-4.108A5.42,5.42,0,0,0-27.365,14h-2.314ZM-8.9,29V10.54h6.76a5.324,5.324,0,0,1,3.9,1.573A5.137,5.137,0,0,1,3.341,15.9a4.232,4.232,0,0,1-1.456,3.3,4.549,4.549,0,0,1,2.73,4.368A5.133,5.133,0,0,1,2.977,27.44,5.687,5.687,0,0,1-1.1,29Zm3.77-3.458h3.77a2.372,2.372,0,0,0,1.69-.585,1.99,1.99,0,0,0,.624-1.521A2.031,2.031,0,0,0,.325,21.9a2.341,2.341,0,0,0-1.69-.6h-3.77Zm0-7.436h2.626a2.17,2.17,0,0,0,1.586-.585,1.97,1.97,0,0,0,.6-1.469,2,2,0,0,0-.611-1.469,2.129,2.129,0,0,0-1.573-.611H-5.135ZM7.111,29V16h3.562v1.56a2.8,2.8,0,0,1,1.183-1.222,3.569,3.569,0,0,1,1.833-.494,4.445,4.445,0,0,1,1.508.234l-.546,3.354a2.912,2.912,0,0,0-1.092-.156,3.115,3.115,0,0,0-2.886,1.456V29Zm20.462-1.677a6.655,6.655,0,0,1-4.836,1.963A6.655,6.655,0,0,1,17.9,27.323a6.492,6.492,0,0,1-2-4.823,6.5,6.5,0,0,1,2-4.81,6.906,6.906,0,0,1,9.672,0,6.5,6.5,0,0,1,2,4.81A6.492,6.492,0,0,1,27.573,27.323Zm-4.836-1.365a3.038,3.038,0,0,0,2.3-.975,3.467,3.467,0,0,0,.923-2.483,3.467,3.467,0,0,0-.923-2.483,3.233,3.233,0,0,0-4.628,0,3.467,3.467,0,0,0-.923,2.483,3.467,3.467,0,0,0,.923,2.483A3.068,3.068,0,0,0,22.737,25.958ZM41.015,29l-5.3-5.98V29H32.149V10.02h3.562V20.784L39.923,16h4.29l-5.148,5.85L45.409,29Zm10.842.286a6.856,6.856,0,0,1-4.927-1.872A6.479,6.479,0,0,1,44.967,22.5a6.555,6.555,0,0,1,1.95-4.849,6.654,6.654,0,0,1,4.888-1.937,6.517,6.517,0,0,1,4.55,1.677A6.051,6.051,0,0,1,58.2,22.11a9.85,9.85,0,0,1-.052,1.222H48.425a2.772,2.772,0,0,0,1.131,1.989,3.827,3.827,0,0,0,2.327.715A3.712,3.712,0,0,0,55.237,24.4l2.652,1.976A6.83,6.83,0,0,1,51.857,29.286Zm-3.3-8.372h6.084a2.619,2.619,0,0,0-1.053-1.69,3.21,3.21,0,0,0-1.885-.572,3.688,3.688,0,0,0-2,.572A2.513,2.513,0,0,0,48.555,20.914ZM60.827,29V16h3.562v1.56a2.8,2.8,0,0,1,1.183-1.222,3.569,3.569,0,0,1,1.833-.494,4.445,4.445,0,0,1,1.508.234l-.546,3.354a2.912,2.912,0,0,0-1.092-.156,3.115,3.115,0,0,0-2.886,1.456V29ZM-29.432,58V54.88l7.2-6.942A4.465,4.465,0,0,0-20.618,45a2.189,2.189,0,0,0-.65-1.612,2.389,2.389,0,0,0-1.768-.65,2.707,2.707,0,0,0-1.872.728,3.807,3.807,0,0,0-1.118,1.872l-3.458-.832a6.289,6.289,0,0,1,2.314-3.861,6.818,6.818,0,0,1,4.316-1.417A5.988,5.988,0,0,1-18.72,40.71a5.217,5.217,0,0,1,1.664,4.108,6.134,6.134,0,0,1-.754,3.107,13.1,13.1,0,0,1-2.288,2.8L-24,54.49h7.124V58Zm22.022.286a6.5,6.5,0,0,1-4.966-2.054A7.376,7.376,0,0,1-14.3,50.98V46.508a7.341,7.341,0,0,1,1.924-5.226A6.5,6.5,0,0,1-7.41,39.228a6.467,6.467,0,0,1,4.94,2.054A7.341,7.341,0,0,1-.546,46.508V50.98A7.376,7.376,0,0,1-2.47,56.232,6.467,6.467,0,0,1-7.41,58.286Zm-2.418-4.524A3.09,3.09,0,0,0-7.41,54.776,3.051,3.051,0,0,0-5,53.762a4.052,4.052,0,0,0,.9-2.782V46.508A4,4,0,0,0-5,43.739a3.069,3.069,0,0,0-2.4-1,3.11,3.11,0,0,0-2.418,1,3.965,3.965,0,0,0-.91,2.769V50.98A4.014,4.014,0,0,0-9.828,53.762ZM1.82,58V54.88l7.2-6.942A4.465,4.465,0,0,0,10.634,45a2.189,2.189,0,0,0-.65-1.612,2.389,2.389,0,0,0-1.768-.65,2.707,2.707,0,0,0-1.872.728,3.807,3.807,0,0,0-1.118,1.872l-3.458-.832a6.289,6.289,0,0,1,2.314-3.861A6.818,6.818,0,0,1,8.4,39.228a5.988,5.988,0,0,1,4.134,1.482A5.217,5.217,0,0,1,14.2,44.818a6.134,6.134,0,0,1-.754,3.107,13.1,13.1,0,0,1-2.288,2.8l-3.9,3.77h7.124V58Zm14.846,0V54.88l7.2-6.942A4.465,4.465,0,0,0,25.48,45a2.189,2.189,0,0,0-.65-1.612,2.389,2.389,0,0,0-1.768-.65,2.707,2.707,0,0,0-1.872.728,3.807,3.807,0,0,0-1.118,1.872l-3.458-.832a6.289,6.289,0,0,1,2.314-3.861,6.818,6.818,0,0,1,4.316-1.417,5.988,5.988,0,0,1,4.134,1.482,5.217,5.217,0,0,1,1.664,4.108,6.134,6.134,0,0,1-.754,3.107A13.1,13.1,0,0,1,26,50.72l-3.9,3.77h7.124V58Z" transform="translate(189 1272)" fill="#606060"/>
    <path id="Path_1660" data-name="Path 1660" d="M-44.816,0V-11.36h3.584a3.5,3.5,0,0,1,2.48.848,2.713,2.713,0,0,1,.912,2.064,2.583,2.583,0,0,1-1.3,2.416,2.676,2.676,0,0,1,2.048,2.72A3.019,3.019,0,0,1-38.152-.928,4.143,4.143,0,0,1-40.976,0ZM-43.6-1.1h2.752a2.8,2.8,0,0,0,1.9-.576,1.943,1.943,0,0,0,.656-1.536,1.978,1.978,0,0,0-.648-1.544,2.745,2.745,0,0,0-1.9-.584H-43.6Zm0-5.3h2.448A2.153,2.153,0,0,0-39.6-6.936a1.83,1.83,0,0,0,.56-1.384,1.865,1.865,0,0,0-.568-1.368,2.086,2.086,0,0,0-1.544-.568H-43.6ZM-35.3,0V-8h1.12v1.248a2.375,2.375,0,0,1,.9-.936,2.481,2.481,0,0,1,1.344-.392,2.9,2.9,0,0,1,.656.064l-.144,1.152a2.282,2.282,0,0,0-.688-.1,1.95,1.95,0,0,0-1.264.472,2.446,2.446,0,0,0-.8,1.272V0Zm11.472-1.048A4.013,4.013,0,0,1-26.816.16a4.013,4.013,0,0,1-2.992-1.208A4.058,4.058,0,0,1-30.992-4a4.058,4.058,0,0,1,1.184-2.952A4.013,4.013,0,0,1-26.816-8.16a4.013,4.013,0,0,1,2.992,1.208A4.058,4.058,0,0,1-22.64-4,4.058,4.058,0,0,1-23.824-1.048ZM-29-1.784a2.844,2.844,0,0,0,2.184.9,2.844,2.844,0,0,0,2.184-.9A3.135,3.135,0,0,0-23.792-4a3.135,3.135,0,0,0-.84-2.216,2.844,2.844,0,0,0-2.184-.9,2.844,2.844,0,0,0-2.184.9A3.135,3.135,0,0,0-29.84-4,3.135,3.135,0,0,0-29-1.784ZM-15.1,0-19.76-4.08V0h-1.12V-11.68h1.12v6.832L-16-8h1.584l-4.208,3.52L-13.5,0Zm5.376.16A3.923,3.923,0,0,1-12.7-1.032,4.134,4.134,0,0,1-13.84-4a4.079,4.079,0,0,1,1.168-2.96A3.974,3.974,0,0,1-9.7-8.16,3.618,3.618,0,0,1-7.008-7.072a4.034,4.034,0,0,1,1.072,2.96v.3h-6.752a2.849,2.849,0,0,0,.832,2.088,2.867,2.867,0,0,0,2.128.84,2.985,2.985,0,0,0,1.576-.376A3.2,3.2,0,0,0-7.088-2.384l.912.592A3.819,3.819,0,0,1-9.728.16ZM-12.592-4.8H-7.1a2.68,2.68,0,0,0-.88-1.7,2.594,2.594,0,0,0-1.76-.624,2.918,2.918,0,0,0-1.848.632A2.673,2.673,0,0,0-12.592-4.8Zm8.4,4.8V-8h1.12v1.248a2.375,2.375,0,0,1,.9-.936A2.481,2.481,0,0,1-.832-8.08a2.9,2.9,0,0,1,.656.064L-.32-6.864a2.282,2.282,0,0,0-.688-.1,1.95,1.95,0,0,0-1.264.472,2.446,2.446,0,0,0-.8,1.272V0Zm8.48.08A2.4,2.4,0,0,1,2.632-.512a2.174,2.174,0,0,1-.664-1.712v-4.72H-.064V-8H1.968v-2.224h1.12V-8h2.5v1.056h-2.5V-2.32a1.382,1.382,0,0,0,.36,1.056,1.317,1.317,0,0,0,.936.336,2.387,2.387,0,0,0,1.184-.3l.336.96A3.443,3.443,0,0,1,4.288.08ZM10.5.16A3.923,3.923,0,0,1,7.52-1.032,4.134,4.134,0,0,1,6.384-4,4.079,4.079,0,0,1,7.552-6.96a3.974,3.974,0,0,1,2.976-1.2,3.618,3.618,0,0,1,2.688,1.088,4.034,4.034,0,0,1,1.072,2.96v.3H7.536A2.849,2.849,0,0,0,8.368-1.72,2.867,2.867,0,0,0,10.5-.88a2.985,2.985,0,0,0,1.576-.376,3.2,3.2,0,0,0,1.064-1.128l.912.592A3.819,3.819,0,0,1,10.5.16ZM7.632-4.8H13.12a2.68,2.68,0,0,0-.88-1.7,2.594,2.594,0,0,0-1.76-.624,2.918,2.918,0,0,0-1.848.632A2.673,2.673,0,0,0,7.632-4.8ZM18.368.16a3.683,3.683,0,0,1-1.96-.5,2.63,2.63,0,0,1-1.144-1.464l1.008-.416a1.742,1.742,0,0,0,.792,1.008,2.476,2.476,0,0,0,1.32.368A1.81,1.81,0,0,0,19.5-1.176a1.065,1.065,0,0,0,.44-.9,1.072,1.072,0,0,0-.344-.808,3.161,3.161,0,0,0-1.16-.6l-.864-.272a2.3,2.3,0,0,1-1.92-2.272,1.847,1.847,0,0,1,.76-1.552A3.075,3.075,0,0,1,18.32-8.16a2.733,2.733,0,0,1,2.592,1.408l-.9.56a2,2,0,0,0-1.76-.976,1.774,1.774,0,0,0-1.04.312.921.921,0,0,0-.448.776q0,.9,1.248,1.3l.912.288q2.128.672,2.128,2.32a2.11,2.11,0,0,1-.744,1.72A2.949,2.949,0,0,1,18.368.16ZM25.984.08a2.4,2.4,0,0,1-1.656-.592,2.174,2.174,0,0,1-.664-1.712v-4.72H21.632V-8h2.032v-2.224h1.12V-8h2.5v1.056h-2.5V-2.32a1.382,1.382,0,0,0,.36,1.056,1.317,1.317,0,0,0,.936.336,2.387,2.387,0,0,0,1.184-.3l.336.96A3.443,3.443,0,0,1,25.984.08Zm6.208.08a3.923,3.923,0,0,1-2.976-1.192A4.134,4.134,0,0,1,28.08-4a4.079,4.079,0,0,1,1.168-2.96,3.974,3.974,0,0,1,2.976-1.2,3.618,3.618,0,0,1,2.688,1.088,4.034,4.034,0,0,1,1.072,2.96v.3H29.232a2.849,2.849,0,0,0,.832,2.088,2.867,2.867,0,0,0,2.128.84,2.985,2.985,0,0,0,1.576-.376,3.2,3.2,0,0,0,1.064-1.128l.912.592A3.819,3.819,0,0,1,32.192.16ZM29.328-4.8h5.488a2.68,2.68,0,0,0-.88-1.7,2.594,2.594,0,0,0-1.76-.624,2.918,2.918,0,0,0-1.848.632A2.673,2.673,0,0,0,29.328-4.8ZM41.12.16a3.827,3.827,0,0,1-2.9-1.208A4.133,4.133,0,0,1,37.072-4a4.133,4.133,0,0,1,1.144-2.952,3.827,3.827,0,0,1,2.9-1.208A3.591,3.591,0,0,1,43.9-7.024V-11.68h1.12V0H43.9V-.976A3.591,3.591,0,0,1,41.12.16Zm.048-1.04a3.246,3.246,0,0,0,1.632-.4,3,3,0,0,0,1.1-1.056V-5.664A3,3,0,0,0,42.8-6.72a3.246,3.246,0,0,0-1.632-.4,2.739,2.739,0,0,0-2.12.9A3.169,3.169,0,0,0,38.224-4a3.169,3.169,0,0,0,.824,2.216A2.739,2.739,0,0,0,41.168-.88Z" transform="translate(189 1380.202)" fill="#a5a5a5"/>
  </g>
</svg>
