<svg xmlns="http://www.w3.org/2000/svg" xmlns:xlink="http://www.w3.org/1999/xlink" width="264.047" height="208.362" viewBox="0 0 264.047 208.362">
  <defs>
    <clipPath id="clip-path">
      <rect id="Rectangle_4" data-name="Rectangle 4" width="264.047" height="205.595" fill="none"/>
    </clipPath>
    <clipPath id="clip-path-2">
      <rect id="Rectangle_5" data-name="Rectangle 5" width="264.047" height="205.595" fill="#41b8ea"/>
    </clipPath>
  </defs>
  <g id="Best_Global" data-name="Best Global" transform="translate(-365 -3287)">
    <path id="Path_271" data-name="Path 271" d="M-38.328.192a6.024,6.024,0,0,1-4.392-1.68A5.62,5.62,0,0,1-44.44-5.68a5.654,5.654,0,0,1,1.7-4.184,5.755,5.755,0,0,1,4.216-1.688,5.828,5.828,0,0,1,4.16,1.5l-.784.9A4.842,4.842,0,0,0-38.52-10.4a4.5,4.5,0,0,0-3.352,1.36,4.607,4.607,0,0,0-1.336,3.36A4.564,4.564,0,0,0-41.856-2.3,4.787,4.787,0,0,0-38.328-.96a5,5,0,0,0,3.216-.928v-3.36h-3.456V-6.4h4.656v5.008A5.936,5.936,0,0,1-38.328.192Zm6.5-.192V-11.68h1.12V0Zm10.144-1.048A4.013,4.013,0,0,1-24.68.16a4.013,4.013,0,0,1-2.992-1.208A4.058,4.058,0,0,1-28.856-4a4.058,4.058,0,0,1,1.184-2.952A4.013,4.013,0,0,1-24.68-8.16a4.013,4.013,0,0,1,2.992,1.208A4.058,4.058,0,0,1-20.5-4,4.058,4.058,0,0,1-21.688-1.048Zm-5.176-.736a2.844,2.844,0,0,0,2.184.9,2.844,2.844,0,0,0,2.184-.9A3.135,3.135,0,0,0-21.656-4a3.135,3.135,0,0,0-.84-2.216,2.844,2.844,0,0,0-2.184-.9,2.844,2.844,0,0,0-2.184.9A3.135,3.135,0,0,0-27.7-4,3.135,3.135,0,0,0-26.864-1.784ZM-14.744.16A3.591,3.591,0,0,1-17.528-.976V0h-1.12V-11.68h1.12v4.656A3.591,3.591,0,0,1-14.744-8.16a3.827,3.827,0,0,1,2.9,1.208A4.133,4.133,0,0,1-10.7-4,4.133,4.133,0,0,1-11.84-1.048,3.827,3.827,0,0,1-14.744.16Zm-.048-1.04a2.739,2.739,0,0,0,2.12-.9A3.169,3.169,0,0,0-11.848-4a3.169,3.169,0,0,0-.824-2.216,2.739,2.739,0,0,0-2.12-.9,3.246,3.246,0,0,0-1.632.4,3,3,0,0,0-1.1,1.056v3.328a3,3,0,0,0,1.1,1.056A3.246,3.246,0,0,0-14.792-.88ZM-5.464.16a3.827,3.827,0,0,1-2.9-1.208A4.133,4.133,0,0,1-9.512-4,4.133,4.133,0,0,1-8.368-6.952a3.827,3.827,0,0,1,2.9-1.208A3.591,3.591,0,0,1-2.68-7.024V-8h1.12V0H-2.68V-.976A3.591,3.591,0,0,1-5.464.16Zm.048-1.04a3.246,3.246,0,0,0,1.632-.4,3,3,0,0,0,1.1-1.056V-5.664a3,3,0,0,0-1.1-1.056,3.246,3.246,0,0,0-1.632-.4,2.739,2.739,0,0,0-2.12.9A3.169,3.169,0,0,0-8.36-4a3.169,3.169,0,0,0,.824,2.216A2.739,2.739,0,0,0-5.416-.88ZM.968,0V-11.68h1.12V0ZM8.52,0V-11.36h6.512v1.152h-5.3v3.792h4.192v1.152H9.736V0ZM21.928-1.048A4.013,4.013,0,0,1,18.936.16a4.013,4.013,0,0,1-2.992-1.208A4.058,4.058,0,0,1,14.76-4a4.058,4.058,0,0,1,1.184-2.952A4.013,4.013,0,0,1,18.936-8.16a4.013,4.013,0,0,1,2.992,1.208A4.058,4.058,0,0,1,23.112-4,4.058,4.058,0,0,1,21.928-1.048Zm-5.176-.736a2.844,2.844,0,0,0,2.184.9,2.844,2.844,0,0,0,2.184-.9A3.135,3.135,0,0,0,21.96-4a3.135,3.135,0,0,0-.84-2.216,2.844,2.844,0,0,0-2.184-.9,2.844,2.844,0,0,0-2.184.9A3.135,3.135,0,0,0,15.912-4,3.135,3.135,0,0,0,16.752-1.784ZM24.968,0V-8h1.12v1.248a2.375,2.375,0,0,1,.9-.936,2.481,2.481,0,0,1,1.344-.392,2.9,2.9,0,0,1,.656.064L28.84-6.864a2.282,2.282,0,0,0-.688-.1,1.95,1.95,0,0,0-1.264.472,2.446,2.446,0,0,0-.8,1.272V0Zm8.208.16A3.923,3.923,0,0,1,30.2-1.032,4.134,4.134,0,0,1,29.064-4a4.079,4.079,0,0,1,1.168-2.96,3.974,3.974,0,0,1,2.976-1.2A3.618,3.618,0,0,1,35.9-7.072a4.034,4.034,0,0,1,1.072,2.96v.3H30.216a2.849,2.849,0,0,0,.832,2.088,2.867,2.867,0,0,0,2.128.84,2.985,2.985,0,0,0,1.576-.376,3.2,3.2,0,0,0,1.064-1.128l.912.592A3.819,3.819,0,0,1,33.176.16ZM30.312-4.8H35.8a2.68,2.68,0,0,0-.88-1.7,2.594,2.594,0,0,0-1.76-.624,2.918,2.918,0,0,0-1.848.632A2.673,2.673,0,0,0,30.312-4.8ZM43.672,0,41.064-3.216,38.456,0H37.032L40.36-4.1,37.368-8h1.36l2.32,3.024L43.384-8H44.76L41.752-4.08,45.08,0ZM-27.736,17-22.68,5.64h.976L-16.632,17h-1.28L-19.5,13.464H-24.92L-26.488,17Zm5.52-9.648-2.208,4.976h4.432ZM-8.584,17l-2.128-6.1L-12.824,17h-.928l-2.736-8h1.152l2.064,6.08L-11.144,9h.864l2.112,6.08L-6.088,9H-4.92l-2.736,8Zm8.656.16a3.827,3.827,0,0,1-2.9-1.208A4.133,4.133,0,0,1-3.976,13a4.133,4.133,0,0,1,1.144-2.952A3.827,3.827,0,0,1,.072,8.84,3.591,3.591,0,0,1,2.856,9.976V9h1.12v8H2.856v-.976A3.591,3.591,0,0,1,.072,17.16ZM.12,16.12a3.246,3.246,0,0,0,1.632-.4,3,3,0,0,0,1.1-1.056V11.336a3,3,0,0,0-1.1-1.056A3.246,3.246,0,0,0,.12,9.88a2.739,2.739,0,0,0-2.12.9A3.169,3.169,0,0,0-2.824,13,3.169,3.169,0,0,0-2,15.216,2.739,2.739,0,0,0,.12,16.12ZM6.728,17V9h1.12v1.248a2.375,2.375,0,0,1,.9-.936,2.481,2.481,0,0,1,1.344-.392,2.9,2.9,0,0,1,.656.064L10.6,10.136a2.282,2.282,0,0,0-.688-.1,1.95,1.95,0,0,0-1.264.472,2.446,2.446,0,0,0-.8,1.272V17Zm8.7.16a3.827,3.827,0,0,1-2.9-1.208A4.133,4.133,0,0,1,11.384,13a4.133,4.133,0,0,1,1.144-2.952,3.827,3.827,0,0,1,2.9-1.208,3.591,3.591,0,0,1,2.784,1.136V5.32h1.12V17h-1.12v-.976A3.591,3.591,0,0,1,15.432,17.16Zm.048-1.04a3.246,3.246,0,0,0,1.632-.4,3,3,0,0,0,1.1-1.056V11.336a3,3,0,0,0-1.1-1.056,3.246,3.246,0,0,0-1.632-.4,2.739,2.739,0,0,0-2.12.9A3.169,3.169,0,0,0,12.536,13a3.169,3.169,0,0,0,.824,2.216A2.739,2.739,0,0,0,15.48,16.12Zm8.944,1.04a3.683,3.683,0,0,1-1.96-.5,2.63,2.63,0,0,1-1.144-1.464l1.008-.416a1.742,1.742,0,0,0,.792,1.008,2.476,2.476,0,0,0,1.32.368,1.81,1.81,0,0,0,1.112-.328,1.136,1.136,0,0,0,.1-1.712,3.161,3.161,0,0,0-1.16-.6l-.864-.272a2.3,2.3,0,0,1-1.92-2.272,1.847,1.847,0,0,1,.76-1.552,3.075,3.075,0,0,1,1.912-.576,2.733,2.733,0,0,1,2.592,1.408l-.9.56a2,2,0,0,0-1.76-.976,1.774,1.774,0,0,0-1.04.312.921.921,0,0,0-.448.776q0,.9,1.248,1.3l.912.288q2.128.672,2.128,2.32a2.11,2.11,0,0,1-.744,1.72A2.949,2.949,0,0,1,24.424,17.16Z" transform="translate(497 3478.202)" fill="#a5a5a5"/>
    <path id="Path_272" data-name="Path 272" d="M-71.645,0V-19.17h7.02a5.528,5.528,0,0,1,4.05,1.634,5.334,5.334,0,0,1,1.647,3.929,4.4,4.4,0,0,1-1.512,3.429A4.724,4.724,0,0,1-57.6-5.643a5.33,5.33,0,0,1-1.7,4.023A5.906,5.906,0,0,1-63.545,0Zm3.915-3.591h3.915A2.463,2.463,0,0,0-62.06-4.2a2.066,2.066,0,0,0,.648-1.58,2.109,2.109,0,0,0-.648-1.593,2.431,2.431,0,0,0-1.755-.621H-67.73Zm0-7.722H-65a2.254,2.254,0,0,0,1.647-.607,2.045,2.045,0,0,0,.621-1.526,2.08,2.08,0,0,0-.634-1.526A2.211,2.211,0,0,0-65-15.606H-67.73ZM-48.587.3A7.12,7.12,0,0,1-53.7-1.647a6.728,6.728,0,0,1-2.039-5.1,6.807,6.807,0,0,1,2.025-5.036A6.909,6.909,0,0,1-48.641-13.8a6.768,6.768,0,0,1,4.725,1.741A6.284,6.284,0,0,1-42-7.155a10.228,10.228,0,0,1-.054,1.269h-10.1a2.878,2.878,0,0,0,1.174,2.065,3.974,3.974,0,0,0,2.417.743,3.855,3.855,0,0,0,3.483-1.7l2.754,2.052A7.093,7.093,0,0,1-48.587.3ZM-52.016-8.4H-45.7a2.72,2.72,0,0,0-1.094-1.755,3.334,3.334,0,0,0-1.958-.594,3.829,3.829,0,0,0-2.079.594A2.609,2.609,0,0,0-52.016-8.4ZM-34.736.3Q-38.57.3-40.3-2.3l2.538-2.16a3.305,3.305,0,0,0,3.024,1.566,2.119,2.119,0,0,0,1.053-.243.786.786,0,0,0,.432-.729.871.871,0,0,0-.365-.716,4.581,4.581,0,0,0-1.444-.581l-1-.243A5.33,5.33,0,0,1-38.88-7.02a3.831,3.831,0,0,1-.9-2.7,3.735,3.735,0,0,1,1.472-2.957,5.634,5.634,0,0,1,3.6-1.12,5.3,5.3,0,0,1,4.671,2.268l-2.43,1.971a2.842,2.842,0,0,0-2.295-1.188,1.8,1.8,0,0,0-.945.243.752.752,0,0,0-.4.675q0,.81,1.323,1.161l1.269.378q3.915,1.053,3.915,4.185A3.968,3.968,0,0,1-31.064-.945,5.465,5.465,0,0,1-34.736.3ZM-20.075.162A5.6,5.6,0,0,1-23.882-1.08a4.565,4.565,0,0,1-1.431-3.645V-10.26H-28.58V-13.5h3.267v-4.05h3.7v4.05h4.077v3.24h-4.077v4.806a2.486,2.486,0,0,0,.5,1.741,2.05,2.05,0,0,0,1.552.526A3.911,3.911,0,0,0-17.7-3.645l1.107,3.024A7.265,7.265,0,0,1-20.075.162ZM1.147.324A10.3,10.3,0,0,1-6.278-2.525a9.389,9.389,0,0,1-2.97-7.061A9.613,9.613,0,0,1-6.4-16.619,9.738,9.738,0,0,1,.823-19.494a10.159,10.159,0,0,1,7.722,3.132l-2.727,2.7a6.685,6.685,0,0,0-5-2.052,5.855,5.855,0,0,0-4.414,1.782A6.035,6.035,0,0,0-5.306-9.585,5.924,5.924,0,0,0-3.551-5.2,6.341,6.341,0,0,0,1.12-3.456,6.521,6.521,0,0,0,5.143-4.482V-7.8H1.012v-3.672H8.95v8.991A8.228,8.228,0,0,1,5.589-.405,13.4,13.4,0,0,1,1.147.324ZM11.974,0V-19.71h3.7V0Zm18.5-1.742A6.911,6.911,0,0,1,25.447.3a6.911,6.911,0,0,1-5.022-2.039A6.741,6.741,0,0,1,18.346-6.75a6.754,6.754,0,0,1,2.079-5A6.888,6.888,0,0,1,25.447-13.8a6.888,6.888,0,0,1,5.022,2.052,6.754,6.754,0,0,1,2.079,5A6.741,6.741,0,0,1,30.469-1.742ZM25.447-3.159a3.155,3.155,0,0,0,2.389-1.013A3.6,3.6,0,0,0,28.8-6.75a3.6,3.6,0,0,0-.958-2.579,3.155,3.155,0,0,0-2.389-1.012,3.186,3.186,0,0,0-2.417,1.012,3.6,3.6,0,0,0-.958,2.579,3.6,3.6,0,0,0,.958,2.578A3.186,3.186,0,0,0,25.447-3.159ZM42.376.3A4.671,4.671,0,0,1,38.92-1V0h-3.7V-19.71h3.7v7.182A4.785,4.785,0,0,1,42.376-13.8a6.187,6.187,0,0,1,4.792,2.066A7.148,7.148,0,0,1,49.045-6.75a7.148,7.148,0,0,1-1.876,4.981A6.187,6.187,0,0,1,42.376.3Zm-.54-3.375a3.129,3.129,0,0,0,2.457-1.066,3.789,3.789,0,0,0,.945-2.605,3.789,3.789,0,0,0-.945-2.606,3.129,3.129,0,0,0-2.457-1.066A3.441,3.441,0,0,0,38.92-8.964v4.4A3.421,3.421,0,0,0,41.836-3.078ZM57.578.3a6.187,6.187,0,0,1-4.792-2.066A7.148,7.148,0,0,1,50.909-6.75a7.148,7.148,0,0,1,1.877-4.982A6.187,6.187,0,0,1,57.578-13.8a4.785,4.785,0,0,1,3.456,1.269V-13.5h3.7V0h-3.7V-1A4.671,4.671,0,0,1,57.578.3Zm.54-3.375a3.421,3.421,0,0,0,2.916-1.485v-4.4a3.441,3.441,0,0,0-2.916-1.458,3.1,3.1,0,0,0-2.43,1.066,3.789,3.789,0,0,0-.945,2.606,3.789,3.789,0,0,0,.945,2.605A3.1,3.1,0,0,0,58.118-3.078ZM68.3,0V-19.71H72V0ZM-66.2,29-74.115,9.83h4.239l5.427,13.311L-59.1,9.83h4.32L-62.721,29Zm16.983.3a6.187,6.187,0,0,1-4.792-2.066A7.148,7.148,0,0,1-55.89,22.25a7.148,7.148,0,0,1,1.877-4.982A6.187,6.187,0,0,1-49.221,15.2a4.785,4.785,0,0,1,3.456,1.269V15.5h3.7V29h-3.7V28A4.671,4.671,0,0,1-49.221,29.3Zm.54-3.375a3.421,3.421,0,0,0,2.916-1.485v-4.4a3.441,3.441,0,0,0-2.916-1.458,3.1,3.1,0,0,0-2.43,1.067,3.789,3.789,0,0,0-.945,2.605,3.789,3.789,0,0,0,.945,2.605A3.1,3.1,0,0,0-48.681,25.922ZM-38.5,29V9.29h3.7V29Zm19.575-13.5V29h-3.7V27.92A4.413,4.413,0,0,1-25.947,29.3a5.074,5.074,0,0,1-4.01-1.634A6.3,6.3,0,0,1-31.4,23.33V15.5h3.7v7.209q0,3.213,2.538,3.213a2.952,2.952,0,0,0,2.538-1.539V15.5Zm9.855,13.8a7.12,7.12,0,0,1-5.117-1.944,6.728,6.728,0,0,1-2.039-5.1A6.807,6.807,0,0,1-14.2,17.215,6.909,6.909,0,0,1-9.126,15.2,6.768,6.768,0,0,1-4.4,16.944a6.284,6.284,0,0,1,1.917,4.9,10.228,10.228,0,0,1-.054,1.269h-10.1a2.878,2.878,0,0,0,1.174,2.066,3.974,3.974,0,0,0,2.417.742,3.855,3.855,0,0,0,3.483-1.7l2.754,2.052A7.093,7.093,0,0,1-9.072,29.3ZM-12.5,20.6h6.318a2.72,2.72,0,0,0-1.094-1.755,3.334,3.334,0,0,0-1.957-.594,3.829,3.829,0,0,0-2.079.594A2.609,2.609,0,0,0-12.5,20.6ZM6.75,29V9.83H18.414v3.726H10.665v3.969H16.74v3.726H10.665V29Zm24.192-1.742a7.205,7.205,0,0,1-10.044,0,6.741,6.741,0,0,1-2.079-5.008,6.754,6.754,0,0,1,2.079-5,7.171,7.171,0,0,1,10.044,0,6.754,6.754,0,0,1,2.079,5A6.741,6.741,0,0,1,30.942,27.258ZM25.92,25.841a3.155,3.155,0,0,0,2.389-1.013,3.6,3.6,0,0,0,.958-2.578,3.6,3.6,0,0,0-.958-2.579,3.358,3.358,0,0,0-4.806,0,3.6,3.6,0,0,0-.958,2.579,3.6,3.6,0,0,0,.958,2.578A3.186,3.186,0,0,0,25.92,25.841ZM35.694,29V15.5h3.7v1.62a2.91,2.91,0,0,1,1.229-1.269,3.706,3.706,0,0,1,1.9-.513,4.616,4.616,0,0,1,1.566.243l-.567,3.483A3.024,3.024,0,0,0,42.39,18.9a3.235,3.235,0,0,0-3,1.512V29ZM52,29.3a7.12,7.12,0,0,1-5.117-1.944,6.728,6.728,0,0,1-2.039-5.1,6.807,6.807,0,0,1,2.025-5.035A6.909,6.909,0,0,1,51.948,15.2a6.768,6.768,0,0,1,4.725,1.742,6.284,6.284,0,0,1,1.917,4.9,10.228,10.228,0,0,1-.054,1.269h-10.1a2.878,2.878,0,0,0,1.175,2.066,3.974,3.974,0,0,0,2.416.742,3.855,3.855,0,0,0,3.483-1.7l2.754,2.052A7.093,7.093,0,0,1,52,29.3ZM48.573,20.6h6.318A2.72,2.72,0,0,0,53.8,18.848a3.334,3.334,0,0,0-1.958-.594,3.829,3.829,0,0,0-2.079.594A2.609,2.609,0,0,0,48.573,20.6ZM69.687,29l-3.132-3.969L63.423,29H58.968l5.238-6.615L59.1,15.5h4.374l3.051,4.131L69.579,15.5h4.4l-5.1,6.885L74.115,29ZM-39.474,58V38.83h7.02a5.528,5.528,0,0,1,4.05,1.634,5.334,5.334,0,0,1,1.647,3.928,4.4,4.4,0,0,1-1.512,3.429,4.724,4.724,0,0,1,2.835,4.536,5.33,5.33,0,0,1-1.7,4.023A5.906,5.906,0,0,1-31.374,58Zm3.915-3.591h3.915a2.463,2.463,0,0,0,1.755-.608,2.066,2.066,0,0,0,.648-1.579,2.109,2.109,0,0,0-.648-1.593,2.431,2.431,0,0,0-1.755-.621h-3.915Zm0-7.722h2.727a2.254,2.254,0,0,0,1.647-.608,2.045,2.045,0,0,0,.621-1.525,2.08,2.08,0,0,0-.634-1.526,2.211,2.211,0,0,0-1.633-.634h-2.727ZM-22.842,58V44.5h3.7v1.62a2.91,2.91,0,0,1,1.229-1.269,3.706,3.706,0,0,1,1.9-.513,4.616,4.616,0,0,1,1.566.243l-.567,3.483a3.024,3.024,0,0,0-1.134-.162,3.235,3.235,0,0,0-3,1.512V58Zm21.249-1.742A6.911,6.911,0,0,1-6.615,58.3a6.911,6.911,0,0,1-5.022-2.039,6.741,6.741,0,0,1-2.079-5.008,6.754,6.754,0,0,1,2.079-5A6.888,6.888,0,0,1-6.615,44.2a6.888,6.888,0,0,1,5.022,2.052,6.754,6.754,0,0,1,2.079,5A6.741,6.741,0,0,1-1.593,56.258Zm-5.022-1.417a3.155,3.155,0,0,0,2.39-1.013,3.6,3.6,0,0,0,.958-2.578,3.6,3.6,0,0,0-.958-2.578,3.155,3.155,0,0,0-2.39-1.013,3.186,3.186,0,0,0-2.416,1.013A3.6,3.6,0,0,0-9.99,51.25a3.6,3.6,0,0,0,.958,2.578A3.186,3.186,0,0,0-6.615,54.841ZM12.366,58,6.858,51.79V58h-3.7V38.29h3.7V49.468L11.232,44.5h4.455l-5.346,6.075L16.929,58Zm11.259.3a7.12,7.12,0,0,1-5.117-1.944,6.728,6.728,0,0,1-2.039-5.1A6.807,6.807,0,0,1,18.5,46.215,6.909,6.909,0,0,1,23.571,44.2,6.768,6.768,0,0,1,28.3,45.944a6.284,6.284,0,0,1,1.917,4.9,10.228,10.228,0,0,1-.054,1.269h-10.1a2.878,2.878,0,0,0,1.174,2.066,3.974,3.974,0,0,0,2.417.743,3.855,3.855,0,0,0,3.483-1.7l2.754,2.052A7.093,7.093,0,0,1,23.625,58.3ZM20.2,49.6h6.318a2.72,2.72,0,0,0-1.094-1.755,3.334,3.334,0,0,0-1.958-.594,3.829,3.829,0,0,0-2.079.594A2.609,2.609,0,0,0,20.2,49.6ZM32.94,58V44.5h3.7v1.62a2.91,2.91,0,0,1,1.229-1.269,3.706,3.706,0,0,1,1.9-.513,4.616,4.616,0,0,1,1.566.243l-.567,3.483a3.024,3.024,0,0,0-1.134-.162,3.235,3.235,0,0,0-3,1.512V58Z" transform="translate(497 3371)" fill="#606060"/>
    <g id="Group_123" data-name="Group 123" transform="translate(365 3287)">
      <g id="Group_11" data-name="Group 11" clip-path="url(#clip-path-2)">
        <path id="Path_13" data-name="Path 13" d="M347.192,111.891l3.917-2.1a13.521,13.521,0,0,0,7.2-13.053l-.319-4.432-3.919,2.1a13.521,13.521,0,0,0-7.2,13.045Z" transform="translate(-95.93 -25.531)" fill="#41b8ea" fill-rule="evenodd"/>
        <path id="Path_14" data-name="Path 14" d="M339.938,163.372l4.4-.7a13.482,13.482,0,0,0,11.078-9.973l1.155-4.307-4.407.7a13.478,13.478,0,0,0-11.07,9.972Z" transform="translate(-94.021 -41.043)" fill="#41b8ea" fill-rule="evenodd"/>
        <path id="Path_15" data-name="Path 15" d="M316.465,208.656l4.376.851a13.487,13.487,0,0,0,13.822-5.582l2.561-3.655-4.385-.846A13.489,13.489,0,0,0,319.029,205Z" transform="translate(-87.529 -55.085)" fill="#41b8ea" fill-rule="evenodd"/>
        <path id="Path_16" data-name="Path 16" d="M279.739,242.887l3.732,2.39a13.5,13.5,0,0,0,14.907-.1l3.715-2.442-3.751-2.395a13.5,13.5,0,0,0-14.9.1Z" transform="translate(-77.371 -65.869)" fill="#41b8ea" fill-rule="evenodd"/>
        <path id="Path_17" data-name="Path 17" d="M329.334,67.8l-2.115-3.858a13.519,13.519,0,0,0-13.131-7.057l-4.388.363,2.123,3.861a13.526,13.526,0,0,0,13.124,7.05Z" transform="translate(-85.658 -15.719)" fill="#41b8ea" fill-rule="evenodd"/>
        <path id="Path_18" data-name="Path 18" d="M340.456,113.036l-.731-4.325a13.489,13.489,0,0,0-10.072-10.984l-4.253-1.1.737,4.333a13.488,13.488,0,0,0,10.069,10.978Z" transform="translate(-90 -26.725)" fill="#41b8ea" fill-rule="evenodd"/>
        <path id="Path_19" data-name="Path 19" d="M334.961,160.663l.862-4.3a13.493,13.493,0,0,0-5.486-13.858l-3.582-2.549-.859,4.319a13.5,13.5,0,0,0,5.486,13.843Z" transform="translate(-90.061 -38.709)" fill="#41b8ea" fill-rule="evenodd"/>
        <path id="Path_20" data-name="Path 20" d="M313.515,202.911l2.245-3.8a13.49,13.49,0,0,0-.619-14.888l-2.545-3.6-2.245,3.8a13.5,13.5,0,0,0,.62,14.879Z" transform="translate(-85.302 -49.959)" fill="#41b8ea" fill-rule="evenodd"/>
        <path id="Path_21" data-name="Path 21" d="M278.062,235.882l3.488-2.729a13.486,13.486,0,0,0,4.855-14.091l-1.073-4.3-3.49,2.739a13.492,13.492,0,0,0-4.848,14.082Z" transform="translate(-76.495 -59.399)" fill="#41b8ea" fill-rule="evenodd"/>
        <path id="Path_22" data-name="Path 22" d="M325.419,40.793l2.366-3.718a13.494,13.494,0,0,0-.133-14.9l-2.433-3.678-2.363,3.727a13.512,13.512,0,0,0,.135,14.892Z" transform="translate(-88.696 -5.115)" fill="#41b8ea" fill-rule="evenodd"/>
        <path id="Path_23" data-name="Path 23" d="M344.046,87.069l3.517-2.69a13.49,13.49,0,0,0,4.99-14.046l-1.03-4.314L348,68.723a13.514,13.514,0,0,0-4.983,14.034Z" transform="translate(-94.767 -18.26)" fill="#41b8ea" fill-rule="evenodd"/>
        <path id="Path_24" data-name="Path 24" d="M345.885,137.535l4.21-1.434a13.48,13.48,0,0,0,9.216-11.719l.4-4.432-4.215,1.44a13.482,13.482,0,0,0-9.208,11.711Z" transform="translate(-95.666 -33.176)" fill="#41b8ea" fill-rule="evenodd"/>
        <path id="Path_25" data-name="Path 25" d="M329.843,187.325l4.456.13a13.488,13.488,0,0,0,12.734-7.747l1.937-4.024-4.466-.125a13.481,13.481,0,0,0-12.724,7.746Z" transform="translate(-91.229 -48.555)" fill="#41b8ea" fill-rule="evenodd"/>
        <path id="Path_26" data-name="Path 26" d="M299.424,227.583l4.146,1.612a13.566,13.566,0,0,0,14.595-3.034l3.161-3.134-4.152-1.612a13.565,13.565,0,0,0-14.586,3.037Z" transform="translate(-82.816 -60.978)" fill="#41b8ea" fill-rule="evenodd"/>
        <path id="Path_27" data-name="Path 27" d="M318.1,46.617l-2.744-3.445a13.486,13.486,0,0,0-14.139-4.72l-4.275,1.107,2.758,3.453a13.485,13.485,0,0,0,14.134,4.714Z" transform="translate(-82.13 -10.509)" fill="#41b8ea" fill-rule="evenodd"/>
        <path id="Path_28" data-name="Path 28" d="M336.88,90.056,335.4,85.918a13.494,13.494,0,0,0-11.839-9.046l-4.385-.34,1.484,4.143a13.489,13.489,0,0,0,11.837,9.04Z" transform="translate(-88.277 -21.168)" fill="#41b8ea" fill-rule="evenodd"/>
        <path id="Path_29" data-name="Path 29" d="M339.984,136.764l.079-4.381a13.49,13.49,0,0,0-7.876-12.653l-3.968-1.861-.082,4.386a13.474,13.474,0,0,0,7.874,12.648Z" transform="translate(-90.757 -32.6)" fill="#41b8ea" fill-rule="evenodd"/>
        <path id="Path_30" data-name="Path 30" d="M326.112,182.887l1.531-4.106a13.513,13.513,0,0,0-3.246-14.55l-3.132-3.07-1.533,4.114a13.512,13.512,0,0,0,3.248,14.544Z" transform="translate(-88.188 -44.575)" fill="#41b8ea" fill-rule="evenodd"/>
        <path id="Path_31" data-name="Path 31" d="M297.419,220.931l2.848-3.368a13.511,13.511,0,0,0,1.874-14.788l-1.919-3.975-2.851,3.377a13.52,13.52,0,0,0-1.869,14.777Z" transform="translate(-81.347 -54.985)" fill="#41b8ea" fill-rule="evenodd"/>
        <path id="Path_32" data-name="Path 32" d="M336.845,63.16l2.968-3.269a13.5,13.5,0,0,0,2.393-14.714l-1.777-4.043-2.97,3.275a13.5,13.5,0,0,0-2.387,14.7Z" transform="translate(-92.346 -11.377)" fill="#41b8ea" fill-rule="evenodd"/>
        <path id="Path_33" data-name="Path 33" d="M311.771,30.117l-.657-4.668A11.327,11.327,0,0,0,302.892,16l-4.534-1.3.661,4.673a11.34,11.34,0,0,0,8.219,9.443Z" transform="translate(-82.521 -4.066)" fill="#41b8ea" fill-rule="evenodd"/>
        <path id="Path_34" data-name="Path 34" d="M13.41,111.889l-3.917-2.1a13.526,13.526,0,0,1-7.2-13.053l.32-4.431,3.919,2.1a13.525,13.525,0,0,1,7.194,13.046Z" transform="translate(-0.624 -25.531)" fill="#41b8ea" fill-rule="evenodd"/>
        <path id="Path_35" data-name="Path 35" d="M18.7,163.371l-4.4-.7A13.479,13.479,0,0,1,3.227,152.7l-1.156-4.307,4.409.7a13.48,13.48,0,0,1,11.068,9.972Z" transform="translate(-0.573 -41.043)" fill="#41b8ea" fill-rule="evenodd"/>
        <path id="Path_36" data-name="Path 36" d="M40.6,208.655l-4.377.851a13.479,13.479,0,0,1-13.82-5.582l-2.562-3.656,4.385-.845A13.491,13.491,0,0,1,38.036,205Z" transform="translate(-5.487 -55.085)" fill="#41b8ea" fill-rule="evenodd"/>
        <path id="Path_37" data-name="Path 37" d="M76.715,242.886l-3.731,2.389a13.5,13.5,0,0,1-14.908-.1l-3.714-2.442,3.751-2.394a13.494,13.494,0,0,1,14.9.1Z" transform="translate(-15.036 -65.868)" fill="#41b8ea" fill-rule="evenodd"/>
        <path id="Path_38" data-name="Path 38" d="M28.161,67.8l2.115-3.858A13.512,13.512,0,0,1,43.407,56.88l4.387.362L45.672,61.1a13.528,13.528,0,0,1-13.123,7.05Z" transform="translate(-7.789 -15.719)" fill="#41b8ea" fill-rule="evenodd"/>
        <path id="Path_39" data-name="Path 39" d="M18.788,113.034l.731-4.324A13.487,13.487,0,0,1,29.592,97.727l4.252-1.1-.737,4.334a13.491,13.491,0,0,1-10.071,10.976Z" transform="translate(-5.196 -26.725)" fill="#41b8ea" fill-rule="evenodd"/>
        <path id="Path_40" data-name="Path 40" d="M26.032,160.661l-.862-4.3A13.491,13.491,0,0,1,30.654,142.5l3.584-2.551.859,4.319a13.5,13.5,0,0,1-5.488,13.844Z" transform="translate(-6.884 -38.709)" fill="#41b8ea" fill-rule="evenodd"/>
        <path id="Path_41" data-name="Path 41" d="M47.933,202.909l-2.245-3.794a13.492,13.492,0,0,1,.617-14.889l2.547-3.6,2.243,3.8a13.5,13.5,0,0,1-.619,14.879Z" transform="translate(-12.099 -49.958)" fill="#41b8ea" fill-rule="evenodd"/>
        <path id="Path_42" data-name="Path 42" d="M83.017,235.88l-3.486-2.729a13.484,13.484,0,0,1-4.855-14.091l1.071-4.3,3.493,2.737a13.5,13.5,0,0,1,4.847,14.083Z" transform="translate(-20.537 -59.399)" fill="#41b8ea" fill-rule="evenodd"/>
        <path id="Path_43" data-name="Path 43" d="M36.033,40.791,33.67,37.073A13.5,13.5,0,0,1,33.8,22.168l2.434-3.678L38.6,22.218a13.511,13.511,0,0,1-.136,14.891Z" transform="translate(-8.71 -5.114)" fill="#41b8ea" fill-rule="evenodd"/>
        <path id="Path_44" data-name="Path 44" d="M17.013,87.067,13.5,84.378A13.493,13.493,0,0,1,8.5,70.33l1.031-4.314,3.52,2.706a13.512,13.512,0,0,1,4.982,14.034Z" transform="translate(-2.244 -18.259)" fill="#41b8ea" fill-rule="evenodd"/>
        <path id="Path_45" data-name="Path 45" d="M13.83,137.533,9.618,136.1A13.481,13.481,0,0,1,.4,124.381L0,119.949l4.217,1.44A13.477,13.477,0,0,1,13.424,133.1Z" transform="translate(0 -33.176)" fill="#41b8ea" fill-rule="evenodd"/>
        <path id="Path_46" data-name="Path 46" d="M27.844,187.325l-4.455.128a13.492,13.492,0,0,1-12.734-7.747l-1.937-4.024,4.468-.125A13.484,13.484,0,0,1,25.91,183.3Z" transform="translate(-2.411 -48.555)" fill="#41b8ea" fill-rule="evenodd"/>
        <path id="Path_47" data-name="Path 47" d="M57.2,227.583l-4.146,1.61a13.565,13.565,0,0,1-14.595-3.034L35.3,223.027l4.153-1.613a13.568,13.568,0,0,1,14.585,3.037Z" transform="translate(-9.764 -60.978)" fill="#41b8ea" fill-rule="evenodd"/>
        <path id="Path_48" data-name="Path 48" d="M38.81,46.615l2.744-3.445a13.485,13.485,0,0,1,14.138-4.72l4.276,1.108-2.759,3.451a13.479,13.479,0,0,1-14.132,4.714Z" transform="translate(-10.734 -10.508)" fill="#41b8ea" fill-rule="evenodd"/>
        <path id="Path_49" data-name="Path 49" d="M21.352,90.054l1.484-4.138A13.494,13.494,0,0,1,34.675,76.87l4.385-.34-1.484,4.143a13.5,13.5,0,0,1-11.839,9.041Z" transform="translate(-5.906 -21.167)" fill="#41b8ea" fill-rule="evenodd"/>
        <path id="Path_50" data-name="Path 50" d="M20.457,136.762l-.079-4.381a13.487,13.487,0,0,1,7.876-12.652l3.968-1.863.082,4.388A13.474,13.474,0,0,1,24.428,134.9Z" transform="translate(-5.636 -32.6)" fill="#41b8ea" fill-rule="evenodd"/>
        <path id="Path_51" data-name="Path 51" d="M35.188,182.887l-1.533-4.107A13.515,13.515,0,0,1,36.9,164.229l3.132-3.07,1.533,4.114a13.511,13.511,0,0,1-3.249,14.544Z" transform="translate(-9.064 -44.574)" fill="#41b8ea" fill-rule="evenodd"/>
        <path id="Path_52" data-name="Path 52" d="M63.981,220.931l-2.848-3.368a13.511,13.511,0,0,1-1.877-14.788l1.921-3.975,2.85,3.377a13.521,13.521,0,0,1,1.87,14.777Z" transform="translate(-16.004 -54.985)" fill="#41b8ea" fill-rule="evenodd"/>
        <path id="Path_53" data-name="Path 53" d="M24.517,63.158,21.55,59.889a13.5,13.5,0,0,1-2.395-14.714l1.779-4.045,2.97,3.275a13.5,13.5,0,0,1,2.387,14.7Z" transform="translate(-4.969 -11.376)" fill="#41b8ea" fill-rule="evenodd"/>
        <path id="Path_54" data-name="Path 54" d="M48.1,30.116l.658-4.668A11.33,11.33,0,0,1,56.981,16l4.535-1.3-.663,4.674a11.334,11.334,0,0,1-8.219,9.441Z" transform="translate(-13.304 -4.066)" fill="#41b8ea" fill-rule="evenodd"/>
      </g>
    </g>
    <g id="Group_142" data-name="Group 142">
      <path id="Path_80368" data-name="Path 80368" d="M8.162,0V-3.564H.4V-6.006l8.1-9.614h2.684v9.284h2.046v2.772H11.176V0ZM4.092-6.336h4.07v-4.818ZM22.814,0,20.262-3.234,17.71,0H14.08l4.268-5.39L14.19-11h3.564L20.24-7.634,22.726-11h3.586L22.154-5.39,26.422,0ZM36.08,0,31.218-15.62h3.366L37.6-5.236,40.832-15.62h2.794L46.838-5.236,49.874-15.62h3.388L48.4,0H45.54l-3.3-10.736L38.94,0ZM55.2,0V-15.62h3.19V0ZM75.812,0h-2.75L65.054-10.186V0h-3.19V-15.62h2.75L72.622-5.434V-15.62h3.19ZM93.236,0h-2.75L82.478-10.186V0h-3.19V-15.62h2.75L90.046-5.434V-15.62h3.19Zm3.476,0V-15.62h9.724v3.036H99.9v3.212h5.214v3.036H99.9v3.3h6.534V0Zm12.5,0V-15.62h5.984a4.708,4.708,0,0,1,3.465,1.32,4.458,4.458,0,0,1,1.331,3.3,4,4,0,0,1-3.212,4.07L122.386,0h-3.85l-5.368-6.578h-.77V0Zm3.19-9.306h2.42a2.209,2.209,0,0,0,1.463-.451A1.533,1.533,0,0,0,116.82-11a1.533,1.533,0,0,0-.539-1.243,2.209,2.209,0,0,0-1.463-.451H112.4Z" transform="translate(436 3321)" fill="#606060"/>
      <g id="Group_141" data-name="Group 141" transform="translate(11823.361 9608)">
        <g id="Group_77" data-name="Group 77">
          <path id="Path_56" data-name="Path 56" d="M171.272,0l-1.29,3.969h-4.171l3.375,2.452-1.29,3.967,3.376-2.452,3.375,2.452-1.29-3.967,3.375-2.452h-4.171Z" transform="translate(-11490.722 -6321)" fill="#606060"/>
          <path id="Path_57" data-name="Path 57" d="M152.99,0,151.7,3.969h-4.172L150.9,6.42l-1.289,3.967,3.375-2.452,3.375,2.452L155.077,6.42l3.375-2.452h-4.172Z" transform="translate(-11485.665 -6321)" fill="#606060"/>
          <path id="Path_58" data-name="Path 58" d="M134.709,0l-1.29,3.969h-4.171l3.375,2.452-1.289,3.967,3.375-2.452,3.375,2.452-1.29-3.967,3.375-2.452H136Z" transform="translate(-11480.609 -6321)" fill="#606060"/>
          <path id="Path_61" data-name="Path 61" d="M189.553,0l-1.289,3.969h-4.172l3.375,2.452-1.289,3.967,3.375-2.452,3.375,2.452L191.639,6.42l3.375-2.452h-4.172Z" transform="translate(-11495.778 -6321)" fill="#606060"/>
        </g>
      </g>
    </g>
  </g>
</svg>
