<svg xmlns="http://www.w3.org/2000/svg" xmlns:xlink="http://www.w3.org/1999/xlink" width="264.047" height="215.278" viewBox="0 0 264.047 215.278">
  <defs>
    <clipPath id="clip-path">
      <rect id="Rectangle_6" data-name="Rectangle 6" width="264.047" height="207.042" fill="none"/>
    </clipPath>
    <clipPath id="clip-path-2">
      <rect id="Rectangle_7" data-name="Rectangle 7" width="264.047" height="207.042" fill="#41b8ea"/>
    </clipPath>
  </defs>
  <g id="Compare_Forex_Broker" data-name="Compare Forex Broker" transform="translate(-57 -1182.116)">
    <path id="Path_1665" data-name="Path 1665" d="M-25.564,0V-2.64l6.094-5.874A3.778,3.778,0,0,0-18.106-11a1.852,1.852,0,0,0-.55-1.364,2.021,2.021,0,0,0-1.5-.55,2.291,2.291,0,0,0-1.584.616,3.221,3.221,0,0,0-.946,1.584l-2.926-.7a5.321,5.321,0,0,1,1.958-3.267A5.769,5.769,0,0,1-20-15.884a5.067,5.067,0,0,1,3.5,1.254,4.414,4.414,0,0,1,1.408,3.476,5.19,5.19,0,0,1-.638,2.629A11.087,11.087,0,0,1-17.666-6.16l-3.3,3.19h6.028V0ZM-6.93.242a5.5,5.5,0,0,1-4.2-1.738A6.241,6.241,0,0,1-12.76-5.94V-9.724a6.212,6.212,0,0,1,1.628-4.422,5.5,5.5,0,0,1,4.2-1.738,5.472,5.472,0,0,1,4.18,1.738A6.212,6.212,0,0,1-1.122-9.724V-5.94A6.241,6.241,0,0,1-2.75-1.5,5.472,5.472,0,0,1-6.93.242ZM-8.976-3.586a2.615,2.615,0,0,0,2.046.858,2.581,2.581,0,0,0,2.035-.858A3.428,3.428,0,0,0-4.136-5.94V-9.724a3.386,3.386,0,0,0-.759-2.343,2.6,2.6,0,0,0-2.035-.847,2.631,2.631,0,0,0-2.046.847,3.355,3.355,0,0,0-.77,2.343V-5.94A3.4,3.4,0,0,0-8.976-3.586ZM.88,0V-2.64L6.974-8.514A3.778,3.778,0,0,0,8.338-11a1.852,1.852,0,0,0-.55-1.364,2.021,2.021,0,0,0-1.5-.55,2.291,2.291,0,0,0-1.584.616,3.221,3.221,0,0,0-.946,1.584l-2.926-.7a5.321,5.321,0,0,1,1.958-3.267,5.769,5.769,0,0,1,3.652-1.2,5.067,5.067,0,0,1,3.5,1.254,4.414,4.414,0,0,1,1.408,3.476,5.19,5.19,0,0,1-.638,2.629A11.087,11.087,0,0,1,8.778-6.16l-3.3,3.19h6.028V0ZM19.514.242a5.5,5.5,0,0,1-4.2-1.738A6.241,6.241,0,0,1,13.684-5.94V-9.724a6.212,6.212,0,0,1,1.628-4.422,5.5,5.5,0,0,1,4.2-1.738,5.472,5.472,0,0,1,4.18,1.738,6.212,6.212,0,0,1,1.628,4.422V-5.94A6.241,6.241,0,0,1,23.694-1.5,5.472,5.472,0,0,1,19.514.242ZM17.468-3.586a2.615,2.615,0,0,0,2.046.858,2.581,2.581,0,0,0,2.035-.858,3.428,3.428,0,0,0,.759-2.354V-9.724a3.386,3.386,0,0,0-.759-2.343,2.6,2.6,0,0,0-2.035-.847,2.631,2.631,0,0,0-2.046.847,3.355,3.355,0,0,0-.77,2.343V-5.94A3.4,3.4,0,0,0,17.468-3.586ZM-47.718,26l6.732-15.62h2.838L-31.394,26h-3.344l-1.518-3.564h-6.666L-44.418,26Zm8.14-11.418-2.156,5.06h4.29ZM-27.456,26l-4.862-15.62h3.366l3.014,10.384L-22.7,10.38h2.794L-16.7,20.764l3.036-10.384h3.388L-15.136,26H-18l-3.3-10.736L-24.6,26Zm16.28,0,6.732-15.62h2.838L5.148,26H1.8L.286,22.436H-6.38L-7.876,26Zm8.14-11.418-2.156,5.06H-.9ZM6.886,26V10.38H12.87a4.708,4.708,0,0,1,3.465,1.32A4.458,4.458,0,0,1,17.666,15a4,4,0,0,1-3.212,4.07L20.064,26h-3.85l-5.368-6.578h-.77V26Zm3.19-9.306H12.5a2.209,2.209,0,0,0,1.463-.451,1.7,1.7,0,0,0,0-2.486,2.209,2.209,0,0,0-1.463-.451h-2.42ZM21.318,26V10.38h5.148a7.868,7.868,0,0,1,5.7,2.266A7.433,7.433,0,0,1,34.5,18.19a7.433,7.433,0,0,1-2.332,5.544A7.868,7.868,0,0,1,26.466,26Zm3.19-2.926h1.958a4.586,4.586,0,0,0,3.476-1.408,4.845,4.845,0,0,0,1.342-3.476,4.845,4.845,0,0,0-1.342-3.476,4.586,4.586,0,0,0-3.476-1.408H24.508Zm16.984,3.19a7.6,7.6,0,0,1-3.366-.737,5.613,5.613,0,0,1-2.354-2.057l2.464-2.046a4.142,4.142,0,0,0,1.474,1.353,3.878,3.878,0,0,0,1.892.495,2.567,2.567,0,0,0,1.529-.418,1.293,1.293,0,0,0,.583-1.1A1.517,1.517,0,0,0,43.2,20.61a4.717,4.717,0,0,0-1.683-.88l-1.32-.462q-3.85-1.342-3.85-4.466a4.276,4.276,0,0,1,1.474-3.421,5.638,5.638,0,0,1,3.806-1.265,6.485,6.485,0,0,1,4.95,2.156L44.44,14.45a3.4,3.4,0,0,0-2.772-1.342,2.853,2.853,0,0,0-1.474.363,1.132,1.132,0,0,0-.616,1.023,1.276,1.276,0,0,0,.528,1.078,7.755,7.755,0,0,0,1.87.88l1.254.462q3.74,1.408,3.718,4.642a4.277,4.277,0,0,1-1.518,3.4A5.816,5.816,0,0,1,41.492,26.264Z" transform="translate(192 1198)" fill="#606060"/>
    <g id="Group_16" data-name="Group 16" transform="translate(57 1189)" clip-path="url(#clip-path-2)">
      <path id="Path_62" data-name="Path 62" d="M347.192,111.891l3.917-2.1a13.521,13.521,0,0,0,7.2-13.053l-.319-4.432-3.919,2.1a13.521,13.521,0,0,0-7.2,13.045Z" transform="translate(-95.93 -25.531)" fill="#41b8ea" fill-rule="evenodd"/>
      <path id="Path_63" data-name="Path 63" d="M339.938,163.372l4.4-.7a13.482,13.482,0,0,0,11.078-9.973l1.155-4.307-4.407.7a13.478,13.478,0,0,0-11.07,9.972Z" transform="translate(-94.021 -41.043)" fill="#41b8ea" fill-rule="evenodd"/>
      <path id="Path_64" data-name="Path 64" d="M316.465,208.656l4.376.851a13.487,13.487,0,0,0,13.822-5.582l2.561-3.655-4.385-.846A13.489,13.489,0,0,0,319.029,205Z" transform="translate(-87.529 -55.085)" fill="#41b8ea" fill-rule="evenodd"/>
      <path id="Path_65" data-name="Path 65" d="M279.739,242.887l3.732,2.39a13.5,13.5,0,0,0,14.907-.1l3.715-2.442-3.751-2.395a13.5,13.5,0,0,0-14.9.1Z" transform="translate(-77.371 -65.869)" fill="#41b8ea" fill-rule="evenodd"/>
      <path id="Path_66" data-name="Path 66" d="M329.334,67.8l-2.115-3.858a13.519,13.519,0,0,0-13.131-7.057l-4.388.363,2.123,3.861a13.526,13.526,0,0,0,13.124,7.05Z" transform="translate(-85.658 -15.719)" fill="#41b8ea" fill-rule="evenodd"/>
      <path id="Path_67" data-name="Path 67" d="M340.456,113.036l-.731-4.325a13.489,13.489,0,0,0-10.072-10.984l-4.253-1.1.737,4.333a13.488,13.488,0,0,0,10.069,10.978Z" transform="translate(-90 -26.725)" fill="#41b8ea" fill-rule="evenodd"/>
      <path id="Path_68" data-name="Path 68" d="M334.961,160.663l.862-4.3a13.493,13.493,0,0,0-5.486-13.858l-3.582-2.549-.859,4.319a13.5,13.5,0,0,0,5.486,13.843Z" transform="translate(-90.061 -38.709)" fill="#41b8ea" fill-rule="evenodd"/>
      <path id="Path_69" data-name="Path 69" d="M313.515,202.911l2.245-3.8a13.49,13.49,0,0,0-.619-14.888l-2.545-3.6-2.245,3.8a13.5,13.5,0,0,0,.62,14.879Z" transform="translate(-85.302 -49.959)" fill="#41b8ea" fill-rule="evenodd"/>
      <path id="Path_70" data-name="Path 70" d="M278.062,235.882l3.488-2.729a13.486,13.486,0,0,0,4.855-14.091l-1.073-4.3-3.49,2.739a13.492,13.492,0,0,0-4.848,14.082Z" transform="translate(-76.495 -59.399)" fill="#41b8ea" fill-rule="evenodd"/>
      <path id="Path_71" data-name="Path 71" d="M325.419,40.793l2.366-3.718a13.494,13.494,0,0,0-.133-14.9l-2.433-3.678-2.363,3.727a13.512,13.512,0,0,0,.135,14.892Z" transform="translate(-88.696 -5.115)" fill="#41b8ea" fill-rule="evenodd"/>
      <path id="Path_72" data-name="Path 72" d="M344.046,87.069l3.517-2.69a13.49,13.49,0,0,0,4.99-14.046l-1.03-4.314L348,68.723a13.514,13.514,0,0,0-4.983,14.034Z" transform="translate(-94.767 -18.26)" fill="#41b8ea" fill-rule="evenodd"/>
      <path id="Path_73" data-name="Path 73" d="M345.885,137.535l4.21-1.434a13.48,13.48,0,0,0,9.216-11.719l.4-4.432-4.215,1.44a13.482,13.482,0,0,0-9.208,11.711Z" transform="translate(-95.666 -33.176)" fill="#41b8ea" fill-rule="evenodd"/>
      <path id="Path_74" data-name="Path 74" d="M329.843,187.325l4.456.13a13.488,13.488,0,0,0,12.734-7.747l1.937-4.024-4.466-.125a13.481,13.481,0,0,0-12.724,7.746Z" transform="translate(-91.229 -48.555)" fill="#41b8ea" fill-rule="evenodd"/>
      <path id="Path_75" data-name="Path 75" d="M299.424,227.583l4.146,1.612a13.566,13.566,0,0,0,14.595-3.034l3.161-3.134-4.152-1.612a13.565,13.565,0,0,0-14.586,3.037Z" transform="translate(-82.816 -60.978)" fill="#41b8ea" fill-rule="evenodd"/>
      <path id="Path_76" data-name="Path 76" d="M318.1,46.617l-2.744-3.445a13.486,13.486,0,0,0-14.139-4.72l-4.275,1.107,2.758,3.453a13.485,13.485,0,0,0,14.134,4.714Z" transform="translate(-82.13 -10.509)" fill="#41b8ea" fill-rule="evenodd"/>
      <path id="Path_77" data-name="Path 77" d="M336.88,90.056,335.4,85.918a13.494,13.494,0,0,0-11.839-9.046l-4.385-.34,1.484,4.143a13.489,13.489,0,0,0,11.837,9.04Z" transform="translate(-88.277 -21.168)" fill="#41b8ea" fill-rule="evenodd"/>
      <path id="Path_78" data-name="Path 78" d="M339.984,136.764l.079-4.381a13.49,13.49,0,0,0-7.876-12.653l-3.968-1.861-.082,4.386a13.474,13.474,0,0,0,7.874,12.648Z" transform="translate(-90.757 -32.6)" fill="#41b8ea" fill-rule="evenodd"/>
      <path id="Path_79" data-name="Path 79" d="M326.112,182.887l1.531-4.106a13.513,13.513,0,0,0-3.246-14.55l-3.132-3.07-1.533,4.114a13.512,13.512,0,0,0,3.248,14.544Z" transform="translate(-88.188 -44.575)" fill="#41b8ea" fill-rule="evenodd"/>
      <path id="Path_80" data-name="Path 80" d="M297.419,220.931l2.848-3.368a13.511,13.511,0,0,0,1.874-14.788l-1.919-3.975-2.851,3.377a13.52,13.52,0,0,0-1.869,14.777Z" transform="translate(-81.347 -54.985)" fill="#41b8ea" fill-rule="evenodd"/>
      <path id="Path_81" data-name="Path 81" d="M336.845,63.16l2.968-3.269a13.5,13.5,0,0,0,2.393-14.714l-1.777-4.043-2.97,3.275a13.5,13.5,0,0,0-2.387,14.7Z" transform="translate(-92.346 -11.377)" fill="#41b8ea" fill-rule="evenodd"/>
      <path id="Path_82" data-name="Path 82" d="M311.771,30.117l-.657-4.668A11.327,11.327,0,0,0,302.892,16l-4.534-1.3.661,4.673a11.34,11.34,0,0,0,8.219,9.443Z" transform="translate(-82.521 -4.066)" fill="#41b8ea" fill-rule="evenodd"/>
      <path id="Path_83" data-name="Path 83" d="M13.41,111.889l-3.917-2.1a13.526,13.526,0,0,1-7.2-13.053l.32-4.431,3.919,2.1a13.525,13.525,0,0,1,7.194,13.046Z" transform="translate(-0.624 -25.531)" fill="#41b8ea" fill-rule="evenodd"/>
      <path id="Path_84" data-name="Path 84" d="M18.7,163.371l-4.4-.7A13.479,13.479,0,0,1,3.227,152.7l-1.156-4.307,4.409.7a13.48,13.48,0,0,1,11.068,9.972Z" transform="translate(-0.573 -41.043)" fill="#41b8ea" fill-rule="evenodd"/>
      <path id="Path_85" data-name="Path 85" d="M40.6,208.655l-4.377.851a13.479,13.479,0,0,1-13.82-5.582l-2.562-3.656,4.385-.845A13.491,13.491,0,0,1,38.036,205Z" transform="translate(-5.487 -55.085)" fill="#41b8ea" fill-rule="evenodd"/>
      <path id="Path_86" data-name="Path 86" d="M76.715,242.886l-3.731,2.389a13.5,13.5,0,0,1-14.908-.1l-3.714-2.442,3.751-2.394a13.494,13.494,0,0,1,14.9.1Z" transform="translate(-15.036 -65.868)" fill="#41b8ea" fill-rule="evenodd"/>
      <path id="Path_87" data-name="Path 87" d="M28.161,67.8l2.115-3.858A13.512,13.512,0,0,1,43.407,56.88l4.387.362L45.672,61.1a13.528,13.528,0,0,1-13.123,7.05Z" transform="translate(-7.789 -15.719)" fill="#41b8ea" fill-rule="evenodd"/>
      <path id="Path_88" data-name="Path 88" d="M18.788,113.034l.731-4.324A13.487,13.487,0,0,1,29.592,97.727l4.252-1.1-.737,4.334a13.491,13.491,0,0,1-10.071,10.976Z" transform="translate(-5.196 -26.725)" fill="#41b8ea" fill-rule="evenodd"/>
      <path id="Path_89" data-name="Path 89" d="M26.032,160.661l-.862-4.3A13.491,13.491,0,0,1,30.654,142.5l3.584-2.551.859,4.319a13.5,13.5,0,0,1-5.488,13.844Z" transform="translate(-6.884 -38.709)" fill="#41b8ea" fill-rule="evenodd"/>
      <path id="Path_90" data-name="Path 90" d="M47.933,202.909l-2.245-3.794a13.492,13.492,0,0,1,.617-14.889l2.547-3.6,2.243,3.8a13.5,13.5,0,0,1-.619,14.879Z" transform="translate(-12.099 -49.958)" fill="#41b8ea" fill-rule="evenodd"/>
      <path id="Path_91" data-name="Path 91" d="M83.017,235.88l-3.486-2.729a13.484,13.484,0,0,1-4.855-14.091l1.071-4.3,3.493,2.737a13.5,13.5,0,0,1,4.847,14.083Z" transform="translate(-20.537 -59.399)" fill="#41b8ea" fill-rule="evenodd"/>
      <path id="Path_92" data-name="Path 92" d="M36.033,40.791,33.67,37.073A13.5,13.5,0,0,1,33.8,22.168l2.434-3.678L38.6,22.218a13.511,13.511,0,0,1-.136,14.891Z" transform="translate(-8.71 -5.114)" fill="#41b8ea" fill-rule="evenodd"/>
      <path id="Path_93" data-name="Path 93" d="M17.013,87.067,13.5,84.378A13.493,13.493,0,0,1,8.5,70.33l1.031-4.314,3.52,2.706a13.512,13.512,0,0,1,4.982,14.034Z" transform="translate(-2.244 -18.259)" fill="#41b8ea" fill-rule="evenodd"/>
      <path id="Path_94" data-name="Path 94" d="M13.83,137.533,9.618,136.1A13.481,13.481,0,0,1,.4,124.381L0,119.949l4.217,1.44A13.477,13.477,0,0,1,13.424,133.1Z" transform="translate(0 -33.176)" fill="#41b8ea" fill-rule="evenodd"/>
      <path id="Path_95" data-name="Path 95" d="M27.844,187.325l-4.455.128a13.492,13.492,0,0,1-12.734-7.747l-1.937-4.024,4.468-.125A13.484,13.484,0,0,1,25.91,183.3Z" transform="translate(-2.411 -48.555)" fill="#41b8ea" fill-rule="evenodd"/>
      <path id="Path_96" data-name="Path 96" d="M57.2,227.583l-4.146,1.61a13.565,13.565,0,0,1-14.595-3.034L35.3,223.027l4.153-1.613a13.568,13.568,0,0,1,14.585,3.037Z" transform="translate(-9.764 -60.978)" fill="#41b8ea" fill-rule="evenodd"/>
      <path id="Path_97" data-name="Path 97" d="M38.81,46.615l2.744-3.445a13.485,13.485,0,0,1,14.138-4.72l4.276,1.108-2.759,3.451a13.479,13.479,0,0,1-14.132,4.714Z" transform="translate(-10.734 -10.508)" fill="#41b8ea" fill-rule="evenodd"/>
      <path id="Path_98" data-name="Path 98" d="M21.352,90.054l1.484-4.138A13.494,13.494,0,0,1,34.675,76.87l4.385-.34-1.484,4.143a13.5,13.5,0,0,1-11.839,9.041Z" transform="translate(-5.906 -21.167)" fill="#41b8ea" fill-rule="evenodd"/>
      <path id="Path_99" data-name="Path 99" d="M20.457,136.762l-.079-4.381a13.487,13.487,0,0,1,7.876-12.652l3.968-1.863.082,4.388A13.474,13.474,0,0,1,24.428,134.9Z" transform="translate(-5.636 -32.6)" fill="#41b8ea" fill-rule="evenodd"/>
      <path id="Path_100" data-name="Path 100" d="M35.188,182.887l-1.533-4.107A13.515,13.515,0,0,1,36.9,164.229l3.132-3.07,1.533,4.114a13.511,13.511,0,0,1-3.249,14.544Z" transform="translate(-9.064 -44.574)" fill="#41b8ea" fill-rule="evenodd"/>
      <path id="Path_101" data-name="Path 101" d="M63.981,220.931l-2.848-3.368a13.511,13.511,0,0,1-1.877-14.788l1.921-3.975,2.85,3.377a13.521,13.521,0,0,1,1.87,14.777Z" transform="translate(-16.004 -54.985)" fill="#41b8ea" fill-rule="evenodd"/>
      <path id="Path_102" data-name="Path 102" d="M24.517,63.158,21.55,59.889a13.5,13.5,0,0,1-2.395-14.714l1.779-4.045,2.97,3.275a13.5,13.5,0,0,1,2.387,14.7Z" transform="translate(-4.969 -11.376)" fill="#41b8ea" fill-rule="evenodd"/>
      <path id="Path_103" data-name="Path 103" d="M48.1,30.116l.658-4.668A11.33,11.33,0,0,1,56.981,16l4.535-1.3-.663,4.674a11.334,11.334,0,0,1-8.219,9.441Z" transform="translate(-13.304 -4.066)" fill="#41b8ea" fill-rule="evenodd"/>
    </g>
    <path id="Path_1664" data-name="Path 1664" d="M-46.852.312a9.194,9.194,0,0,1-6.747-2.8A9.194,9.194,0,0,1-56.394-9.23,9.194,9.194,0,0,1-53.6-15.977a9.194,9.194,0,0,1,6.747-2.8,9.8,9.8,0,0,1,5.044,1.339,9.023,9.023,0,0,1,3.484,3.575l-3.276,1.82a5.767,5.767,0,0,0-5.252-3.094A5.458,5.458,0,0,0-50.921-13.4,5.776,5.776,0,0,0-52.6-9.23a5.776,5.776,0,0,0,1.677,4.173,5.458,5.458,0,0,0,4.069,1.729A5.767,5.767,0,0,0-41.6-6.422l3.276,1.82a8.938,8.938,0,0,1-3.458,3.588A9.838,9.838,0,0,1-46.852.312Zm21.606-1.989A6.655,6.655,0,0,1-30.082.286a6.655,6.655,0,0,1-4.836-1.963,6.492,6.492,0,0,1-2-4.823,6.5,6.5,0,0,1,2-4.81,6.633,6.633,0,0,1,4.836-1.976,6.633,6.633,0,0,1,4.836,1.976,6.5,6.5,0,0,1,2,4.81A6.492,6.492,0,0,1-25.246-1.677Zm-4.836-1.365a3.038,3.038,0,0,0,2.3-.975A3.467,3.467,0,0,0-26.858-6.5a3.467,3.467,0,0,0-.923-2.483,3.038,3.038,0,0,0-2.3-.975,3.068,3.068,0,0,0-2.327.975A3.467,3.467,0,0,0-33.332-6.5a3.467,3.467,0,0,0,.923,2.483A3.068,3.068,0,0,0-30.082-3.042ZM-4.29,0V-6.864q0-3.146-2.236-3.146a2.646,2.646,0,0,0-2.5,1.534,4.322,4.322,0,0,1,.1.988V0H-12.48V-6.864q0-3.146-2.236-3.146a2.751,2.751,0,0,0-1.4.377,2.549,2.549,0,0,0-.988,1V0H-20.67V-13h3.562v1.014a4,4,0,0,1,3.172-1.3A4.606,4.606,0,0,1-10.27-11.57a5.3,5.3,0,0,1,4.238-1.716,4.859,4.859,0,0,1,3.965,1.612A6.334,6.334,0,0,1-.728-7.488V0ZM2.548,5.044V-13H6.11v.936a4.607,4.607,0,0,1,3.328-1.222A5.958,5.958,0,0,1,14.053-11.3,6.883,6.883,0,0,1,15.86-6.5a6.883,6.883,0,0,1-1.807,4.8A5.958,5.958,0,0,1,9.438.286,4.5,4.5,0,0,1,6.11-.962V5.044Zm6.37-8.008a3.013,3.013,0,0,0,2.366-1.027,3.649,3.649,0,0,0,.91-2.509,3.649,3.649,0,0,0-.91-2.509,3.013,3.013,0,0,0-2.366-1.027,3.314,3.314,0,0,0-2.808,1.4v4.238A3.3,3.3,0,0,0,8.918-2.964ZM24.076.286A5.958,5.958,0,0,1,19.461-1.7a6.883,6.883,0,0,1-1.807-4.8,6.883,6.883,0,0,1,1.807-4.8,5.958,5.958,0,0,1,4.615-1.989A4.607,4.607,0,0,1,27.4-12.064V-13h3.562V0H27.4V-.962A4.5,4.5,0,0,1,24.076.286Zm.52-3.25A3.3,3.3,0,0,0,27.4-4.394V-8.632a3.314,3.314,0,0,0-2.808-1.4,2.984,2.984,0,0,0-2.34,1.027,3.649,3.649,0,0,0-.91,2.509,3.649,3.649,0,0,0,.91,2.509A2.984,2.984,0,0,0,24.6-2.964ZM34.4,0V-13H37.96v1.56a2.8,2.8,0,0,1,1.183-1.222,3.569,3.569,0,0,1,1.833-.494,4.445,4.445,0,0,1,1.508.234l-.546,3.354a2.912,2.912,0,0,0-1.092-.156A3.115,3.115,0,0,0,37.96-8.268V0ZM50.1.286a6.856,6.856,0,0,1-4.927-1.872A6.479,6.479,0,0,1,43.212-6.5a6.555,6.555,0,0,1,1.95-4.849,6.654,6.654,0,0,1,4.888-1.937,6.517,6.517,0,0,1,4.55,1.677A6.051,6.051,0,0,1,56.446-6.89a9.85,9.85,0,0,1-.052,1.222H46.67A2.772,2.772,0,0,0,47.8-3.679a3.827,3.827,0,0,0,2.327.715A3.712,3.712,0,0,0,53.482-4.6l2.652,1.976A6.83,6.83,0,0,1,50.1.286ZM46.8-8.086h6.084a2.619,2.619,0,0,0-1.053-1.69,3.21,3.21,0,0,0-1.885-.572,3.688,3.688,0,0,0-2,.572A2.513,2.513,0,0,0,46.8-8.086ZM-31.447,29V10.54h11.232v3.588h-7.462V17.95h5.85v3.588h-5.85V29Zm23.3-1.677a6.655,6.655,0,0,1-4.836,1.963,6.655,6.655,0,0,1-4.836-1.963,6.492,6.492,0,0,1-2-4.823,6.5,6.5,0,0,1,2-4.81,6.633,6.633,0,0,1,4.836-1.976A6.633,6.633,0,0,1-8.151,17.69a6.5,6.5,0,0,1,2,4.81A6.492,6.492,0,0,1-8.151,27.323Zm-4.836-1.365a3.038,3.038,0,0,0,2.3-.975A3.467,3.467,0,0,0-9.763,22.5a3.467,3.467,0,0,0-.923-2.483,3.038,3.038,0,0,0-2.3-.975,3.068,3.068,0,0,0-2.327.975,3.467,3.467,0,0,0-.923,2.483,3.467,3.467,0,0,0,.923,2.483A3.068,3.068,0,0,0-12.987,25.958ZM-3.575,29V16H-.013v1.56A2.8,2.8,0,0,1,1.17,16.338,3.569,3.569,0,0,1,3,15.844a4.445,4.445,0,0,1,1.508.234l-.546,3.354a2.912,2.912,0,0,0-1.092-.156A3.115,3.115,0,0,0-.013,20.732V29Zm15.7.286A6.856,6.856,0,0,1,7.2,27.414,6.479,6.479,0,0,1,5.239,22.5a6.555,6.555,0,0,1,1.95-4.849,6.654,6.654,0,0,1,4.888-1.937,6.517,6.517,0,0,1,4.55,1.677,6.051,6.051,0,0,1,1.846,4.719,9.849,9.849,0,0,1-.052,1.222H8.7a2.771,2.771,0,0,0,1.131,1.989,3.827,3.827,0,0,0,2.327.715A3.712,3.712,0,0,0,15.509,24.4l2.652,1.976A6.83,6.83,0,0,1,12.129,29.286Zm-3.3-8.372h6.084a2.619,2.619,0,0,0-1.053-1.69,3.21,3.21,0,0,0-1.885-.572,3.688,3.688,0,0,0-2,.572A2.513,2.513,0,0,0,8.827,20.914ZM29.159,29l-3.016-3.822L23.127,29h-4.29l5.044-6.37L18.967,16h4.212l2.938,3.978L29.055,16h4.238l-4.914,6.63L33.423,29ZM-38.012,58V39.54h6.76a5.324,5.324,0,0,1,3.9,1.573A5.137,5.137,0,0,1-25.766,44.9a4.232,4.232,0,0,1-1.456,3.3,4.549,4.549,0,0,1,2.73,4.368A5.133,5.133,0,0,1-26.13,56.44,5.687,5.687,0,0,1-30.212,58Zm3.77-3.458h3.77a2.372,2.372,0,0,0,1.69-.585,1.99,1.99,0,0,0,.624-1.521,2.031,2.031,0,0,0-.624-1.534,2.341,2.341,0,0,0-1.69-.6h-3.77Zm0-7.436h2.626a2.17,2.17,0,0,0,1.586-.585,1.97,1.97,0,0,0,.6-1.469,2,2,0,0,0-.611-1.469,2.129,2.129,0,0,0-1.573-.611h-2.626ZM-22,58V45h3.562v1.56a2.8,2.8,0,0,1,1.183-1.222,3.569,3.569,0,0,1,1.833-.494,4.445,4.445,0,0,1,1.508.234l-.546,3.354a2.912,2.912,0,0,0-1.092-.156,3.115,3.115,0,0,0-2.886,1.456V58Zm20.462-1.677A6.655,6.655,0,0,1-6.37,58.286a6.655,6.655,0,0,1-4.836-1.963,6.492,6.492,0,0,1-2-4.823,6.5,6.5,0,0,1,2-4.81A6.633,6.633,0,0,1-6.37,44.714,6.633,6.633,0,0,1-1.534,46.69a6.5,6.5,0,0,1,2,4.81A6.492,6.492,0,0,1-1.534,56.323ZM-6.37,54.958a3.038,3.038,0,0,0,2.3-.975A3.467,3.467,0,0,0-3.146,51.5a3.467,3.467,0,0,0-.923-2.483,3.038,3.038,0,0,0-2.3-.975,3.068,3.068,0,0,0-2.327.975A3.467,3.467,0,0,0-9.62,51.5,3.467,3.467,0,0,0-8.7,53.983,3.068,3.068,0,0,0-6.37,54.958ZM11.908,58,6.6,52.02V58H3.042V39.02H6.6V49.784L10.816,45h4.29L9.958,50.85,16.3,58Zm10.842.286a6.856,6.856,0,0,1-4.927-1.872A6.479,6.479,0,0,1,15.86,51.5a6.555,6.555,0,0,1,1.95-4.849A6.654,6.654,0,0,1,22.7,44.714a6.517,6.517,0,0,1,4.55,1.677,6.051,6.051,0,0,1,1.846,4.719,9.849,9.849,0,0,1-.052,1.222H19.318a2.772,2.772,0,0,0,1.131,1.989,3.827,3.827,0,0,0,2.327.715A3.712,3.712,0,0,0,26.13,53.4l2.652,1.976A6.83,6.83,0,0,1,22.75,58.286Zm-3.3-8.372h6.084a2.619,2.619,0,0,0-1.053-1.69,3.21,3.21,0,0,0-1.885-.572,3.688,3.688,0,0,0-2,.572A2.513,2.513,0,0,0,19.448,49.914ZM31.72,58V45h3.562v1.56a2.8,2.8,0,0,1,1.183-1.222,3.569,3.569,0,0,1,1.833-.494,4.445,4.445,0,0,1,1.508.234l-.546,3.354a2.912,2.912,0,0,0-1.092-.156,3.115,3.115,0,0,0-2.886,1.456V58Z" transform="translate(189 1272)" fill="#606060"/>
    <path id="Path_1663" data-name="Path 1663" d="M-52.424,0V-11.36h3.584a3.5,3.5,0,0,1,2.48.848,2.713,2.713,0,0,1,.912,2.064,2.583,2.583,0,0,1-1.3,2.416A2.676,2.676,0,0,1-44.7-3.312,3.019,3.019,0,0,1-45.76-.928,4.143,4.143,0,0,1-48.584,0Zm1.216-1.1h2.752a2.8,2.8,0,0,0,1.9-.576A1.943,1.943,0,0,0-45.9-3.216a1.978,1.978,0,0,0-.648-1.544,2.745,2.745,0,0,0-1.9-.584h-2.768Zm0-5.3h2.448a2.153,2.153,0,0,0,1.552-.536,1.83,1.83,0,0,0,.56-1.384,1.865,1.865,0,0,0-.568-1.368,2.086,2.086,0,0,0-1.544-.568h-2.448ZM-39.448.16a3.923,3.923,0,0,1-2.976-1.192A4.134,4.134,0,0,1-43.56-4a4.079,4.079,0,0,1,1.168-2.96,3.974,3.974,0,0,1,2.976-1.2,3.618,3.618,0,0,1,2.688,1.088,4.034,4.034,0,0,1,1.072,2.96v.3h-6.752a2.849,2.849,0,0,0,.832,2.088,2.867,2.867,0,0,0,2.128.84,2.985,2.985,0,0,0,1.576-.376,3.2,3.2,0,0,0,1.064-1.128l.912.592A3.819,3.819,0,0,1-39.448.16ZM-42.312-4.8h5.488a2.68,2.68,0,0,0-.88-1.7,2.594,2.594,0,0,0-1.76-.624,2.918,2.918,0,0,0-1.848.632A2.673,2.673,0,0,0-42.312-4.8ZM-31.576.16a3.683,3.683,0,0,1-1.96-.5A2.63,2.63,0,0,1-34.68-1.808l1.008-.416a1.742,1.742,0,0,0,.792,1.008,2.476,2.476,0,0,0,1.32.368,1.81,1.81,0,0,0,1.112-.328,1.065,1.065,0,0,0,.44-.9,1.072,1.072,0,0,0-.344-.808,3.161,3.161,0,0,0-1.16-.6l-.864-.272A2.3,2.3,0,0,1-34.3-6.032a1.847,1.847,0,0,1,.76-1.552,3.075,3.075,0,0,1,1.912-.576,2.733,2.733,0,0,1,2.592,1.408l-.9.56a2,2,0,0,0-1.76-.976,1.774,1.774,0,0,0-1.04.312.921.921,0,0,0-.448.776q0,.9,1.248,1.3l.912.288q2.128.672,2.128,2.32a2.11,2.11,0,0,1-.744,1.72A2.949,2.949,0,0,1-31.576.16ZM-23.96.08a2.4,2.4,0,0,1-1.656-.592,2.174,2.174,0,0,1-.664-1.712v-4.72h-2.032V-8h2.032v-2.224h1.12V-8h2.5v1.056h-2.5V-2.32a1.382,1.382,0,0,0,.36,1.056,1.317,1.317,0,0,0,.936.336,2.387,2.387,0,0,0,1.184-.3l.336.96A3.443,3.443,0,0,1-23.96.08ZM-17.272,0V-11.36h3.584a3.5,3.5,0,0,1,2.48.848A2.713,2.713,0,0,1-10.3-8.448a2.583,2.583,0,0,1-1.3,2.416,2.676,2.676,0,0,1,2.048,2.72A3.019,3.019,0,0,1-10.608-.928,4.143,4.143,0,0,1-13.432,0Zm1.216-1.1H-13.3a2.8,2.8,0,0,0,1.9-.576,1.943,1.943,0,0,0,.656-1.536,1.978,1.978,0,0,0-.648-1.544,2.745,2.745,0,0,0-1.9-.584h-2.768Zm0-5.3h2.448a2.153,2.153,0,0,0,1.552-.536A1.83,1.83,0,0,0-11.5-8.32a1.865,1.865,0,0,0-.568-1.368,2.086,2.086,0,0,0-1.544-.568h-2.448Zm8.3,6.4V-8h1.12v1.248a2.375,2.375,0,0,1,.9-.936A2.481,2.481,0,0,1-4.392-8.08a2.9,2.9,0,0,1,.656.064L-3.88-6.864a2.282,2.282,0,0,0-.688-.1,1.95,1.95,0,0,0-1.264.472,2.446,2.446,0,0,0-.8,1.272V0ZM3.72-1.048A4.013,4.013,0,0,1,.728.16,4.013,4.013,0,0,1-2.264-1.048,4.058,4.058,0,0,1-3.448-4,4.058,4.058,0,0,1-2.264-6.952,4.013,4.013,0,0,1,.728-8.16,4.013,4.013,0,0,1,3.72-6.952,4.058,4.058,0,0,1,4.9-4,4.058,4.058,0,0,1,3.72-1.048Zm-5.176-.736a2.844,2.844,0,0,0,2.184.9,2.844,2.844,0,0,0,2.184-.9A3.135,3.135,0,0,0,3.752-4a3.135,3.135,0,0,0-.84-2.216,2.844,2.844,0,0,0-2.184-.9,2.844,2.844,0,0,0-2.184.9A3.135,3.135,0,0,0-2.3-4,3.135,3.135,0,0,0-1.456-1.784ZM12.44,0,7.784-4.08V0H6.664V-11.68h1.12v6.832L11.544-8h1.584L8.92-4.48,14.04,0Zm5.376.16A3.923,3.923,0,0,1,14.84-1.032,4.134,4.134,0,0,1,13.7-4a4.079,4.079,0,0,1,1.168-2.96,3.974,3.974,0,0,1,2.976-1.2,3.618,3.618,0,0,1,2.688,1.088,4.034,4.034,0,0,1,1.072,2.96v.3H14.856a2.849,2.849,0,0,0,.832,2.088,2.867,2.867,0,0,0,2.128.84,2.985,2.985,0,0,0,1.576-.376,3.2,3.2,0,0,0,1.064-1.128l.912.592A3.819,3.819,0,0,1,17.816.16ZM14.952-4.8H20.44a2.68,2.68,0,0,0-.88-1.7A2.594,2.594,0,0,0,17.8-7.12a2.918,2.918,0,0,0-1.848.632A2.673,2.673,0,0,0,14.952-4.8Zm8.4,4.8V-8h1.12v1.248a2.375,2.375,0,0,1,.9-.936,2.481,2.481,0,0,1,1.344-.392,2.9,2.9,0,0,1,.656.064l-.144,1.152a2.282,2.282,0,0,0-.688-.1,1.95,1.95,0,0,0-1.264.472,2.446,2.446,0,0,0-.8,1.272V0ZM32.3,0V-6.944H30.424V-8H32.3V-9.344a2.378,2.378,0,0,1,.664-1.784,2.4,2.4,0,0,1,1.752-.648,3.073,3.073,0,0,1,1.552.384l-.432.944a2.719,2.719,0,0,0-1.12-.288,1.189,1.189,0,0,0-.952.4,1.613,1.613,0,0,0-.344,1.088V-8h2.736v1.056H33.416V0Zm11.36-1.048A4.013,4.013,0,0,1,40.664.16a4.013,4.013,0,0,1-2.992-1.208A4.058,4.058,0,0,1,36.488-4a4.058,4.058,0,0,1,1.184-2.952A4.013,4.013,0,0,1,40.664-8.16a4.013,4.013,0,0,1,2.992,1.208A4.058,4.058,0,0,1,44.84-4,4.058,4.058,0,0,1,43.656-1.048ZM38.48-1.784a2.844,2.844,0,0,0,2.184.9,2.844,2.844,0,0,0,2.184-.9A3.135,3.135,0,0,0,43.688-4a3.135,3.135,0,0,0-.84-2.216,2.844,2.844,0,0,0-2.184-.9,2.844,2.844,0,0,0-2.184.9A3.135,3.135,0,0,0,37.64-4,3.135,3.135,0,0,0,38.48-1.784ZM46.6,0V-8h1.12v1.248a2.375,2.375,0,0,1,.9-.936A2.481,2.481,0,0,1,49.96-8.08a2.9,2.9,0,0,1,.656.064l-.144,1.152a2.282,2.282,0,0,0-.688-.1,1.95,1.95,0,0,0-1.264.472,2.446,2.446,0,0,0-.8,1.272V0ZM-56.728,17.192A5.683,5.683,0,0,1-60.9,15.5a5.662,5.662,0,0,1-1.7-4.176,5.662,5.662,0,0,1,1.7-4.176,5.683,5.683,0,0,1,4.168-1.7,5.817,5.817,0,0,1,2.848.712,5.776,5.776,0,0,1,2.1,1.944l-1.008.64A4.555,4.555,0,0,0-54.44,7.176,4.585,4.585,0,0,0-56.728,6.6a4.434,4.434,0,0,0-3.3,1.368,4.615,4.615,0,0,0-1.336,3.352,4.607,4.607,0,0,0,1.336,3.36,4.447,4.447,0,0,0,3.3,1.36,4.585,4.585,0,0,0,2.288-.576A4.555,4.555,0,0,0-52.792,13.9l1.008.64a5.776,5.776,0,0,1-2.1,1.944A5.817,5.817,0,0,1-56.728,17.192ZM-43.752,9v8h-1.12V15.88a2.611,2.611,0,0,1-1.1.96,3.359,3.359,0,0,1-1.448.32,2.794,2.794,0,0,1-2.1-.856,3.171,3.171,0,0,1-.824-2.3V9h1.12v4.848a2.35,2.35,0,0,0,.56,1.68,1.972,1.972,0,0,0,1.5.592,2.19,2.19,0,0,0,1.44-.488,2.682,2.682,0,0,0,.848-1.3V9Zm4.768,8.16a3.683,3.683,0,0,1-1.96-.5,2.63,2.63,0,0,1-1.144-1.464l1.008-.416a1.742,1.742,0,0,0,.792,1.008,2.476,2.476,0,0,0,1.32.368,1.81,1.81,0,0,0,1.112-.328,1.065,1.065,0,0,0,.44-.9,1.072,1.072,0,0,0-.344-.808,3.161,3.161,0,0,0-1.16-.6l-.864-.272a2.3,2.3,0,0,1-1.92-2.272,1.847,1.847,0,0,1,.76-1.552,3.075,3.075,0,0,1,1.912-.576,2.733,2.733,0,0,1,2.592,1.408l-.9.56a2,2,0,0,0-1.76-.976,1.774,1.774,0,0,0-1.04.312.921.921,0,0,0-.448.776q0,.9,1.248,1.3l.912.288q2.128.672,2.128,2.32a2.11,2.11,0,0,1-.744,1.72A2.949,2.949,0,0,1-38.984,17.16Zm7.616-.08a2.4,2.4,0,0,1-1.656-.592,2.174,2.174,0,0,1-.664-1.712v-4.72H-35.72V9h2.032V6.776h1.12V9h2.5v1.056h-2.5V14.68a1.382,1.382,0,0,0,.36,1.056,1.317,1.317,0,0,0,.936.336,2.387,2.387,0,0,0,1.184-.3l.336.96A3.443,3.443,0,0,1-31.368,17.08Zm9.248-1.128a4.013,4.013,0,0,1-2.992,1.208A4.013,4.013,0,0,1-28.1,15.952,4.058,4.058,0,0,1-29.288,13,4.058,4.058,0,0,1-28.1,10.048,4.013,4.013,0,0,1-25.112,8.84a4.013,4.013,0,0,1,2.992,1.208A4.058,4.058,0,0,1-20.936,13,4.058,4.058,0,0,1-22.12,15.952Zm-5.176-.736a2.844,2.844,0,0,0,2.184.9,2.844,2.844,0,0,0,2.184-.9A3.135,3.135,0,0,0-22.088,13a3.135,3.135,0,0,0-.84-2.216,2.844,2.844,0,0,0-2.184-.9,2.844,2.844,0,0,0-2.184.9A3.135,3.135,0,0,0-28.136,13,3.135,3.135,0,0,0-27.3,15.216ZM-8.808,17V12.168a2.478,2.478,0,0,0-.528-1.68A1.79,1.79,0,0,0-10.76,9.88a2.009,2.009,0,0,0-1.352.472A2.614,2.614,0,0,0-12.9,11.64a2.646,2.646,0,0,1,.032.352V17h-1.12V12.168a2.478,2.478,0,0,0-.528-1.68,1.79,1.79,0,0,0-1.424-.608,2.1,2.1,0,0,0-1.32.424,2.33,2.33,0,0,0-.792,1.144V17h-1.12V9h1.12v.928A2.769,2.769,0,0,1-15.672,8.84,2.546,2.546,0,0,1-13.3,10.248,3.037,3.037,0,0,1-10.6,8.84a2.756,2.756,0,0,1,2.128.848,3.261,3.261,0,0,1,.784,2.3V17Zm6.88.16A3.923,3.923,0,0,1-4.9,15.968,4.134,4.134,0,0,1-6.04,13a4.079,4.079,0,0,1,1.168-2.96A3.974,3.974,0,0,1-1.9,8.84,3.618,3.618,0,0,1,.792,9.928a4.034,4.034,0,0,1,1.072,2.96v.3H-4.888a2.849,2.849,0,0,0,.832,2.088,2.867,2.867,0,0,0,2.128.84,2.985,2.985,0,0,0,1.576-.376A3.2,3.2,0,0,0,.712,14.616l.912.592A3.819,3.819,0,0,1-1.928,17.16ZM-4.792,12.2H.7a2.68,2.68,0,0,0-.88-1.7,2.594,2.594,0,0,0-1.76-.624,2.918,2.918,0,0,0-1.848.632A2.673,2.673,0,0,0-4.792,12.2Zm8.4,4.8V9h1.12v1.248a2.375,2.375,0,0,1,.9-.936A2.481,2.481,0,0,1,6.968,8.92a2.9,2.9,0,0,1,.656.064L7.48,10.136a2.282,2.282,0,0,0-.688-.1,1.95,1.95,0,0,0-1.264.472,2.446,2.446,0,0,0-.8,1.272V17Zm11.632.192a5.034,5.034,0,0,1-2.448-.584,3.225,3.225,0,0,1-1.472-1.464l1.008-.72a3.246,3.246,0,0,0,2.928,1.616,2.564,2.564,0,0,0,1.64-.512,1.647,1.647,0,0,0,.648-1.36A2.175,2.175,0,0,0,15.9,12.1l-1.68-.64a4.45,4.45,0,0,1-1.92-1.216A2.878,2.878,0,0,1,11.7,8.36a2.588,2.588,0,0,1,.984-2.112,3.816,3.816,0,0,1,2.488-.8,4.05,4.05,0,0,1,1.88.432A3.692,3.692,0,0,1,18.392,7l-.944.768A2.938,2.938,0,0,0,15.128,6.6a2.5,2.5,0,0,0-1.576.488,1.518,1.518,0,0,0-.632,1.256,1.666,1.666,0,0,0,.392,1.176,3.491,3.491,0,0,0,1.3.776l1.5.576a4.845,4.845,0,0,1,1.984,1.28,2.948,2.948,0,0,1,.656,1.984,2.769,2.769,0,0,1-.976,2.232A3.809,3.809,0,0,1,15.24,17.192Zm8.752-.032a3.923,3.923,0,0,1-2.976-1.192A4.134,4.134,0,0,1,19.88,13a4.079,4.079,0,0,1,1.168-2.96,3.974,3.974,0,0,1,2.976-1.2,3.618,3.618,0,0,1,2.688,1.088,4.034,4.034,0,0,1,1.072,2.96v.3H21.032a2.859,2.859,0,0,0,2.96,2.928,2.985,2.985,0,0,0,1.576-.376,3.2,3.2,0,0,0,1.064-1.128l.912.592A3.819,3.819,0,0,1,23.992,17.16ZM21.128,12.2h5.488a2.68,2.68,0,0,0-.88-1.7,2.594,2.594,0,0,0-1.76-.624,2.918,2.918,0,0,0-1.848.632A2.673,2.673,0,0,0,21.128,12.2Zm8.4,4.8V9h1.12v1.248a2.375,2.375,0,0,1,.9-.936,2.481,2.481,0,0,1,1.344-.392,2.9,2.9,0,0,1,.656.064L33.4,10.136a2.282,2.282,0,0,0-.688-.1,1.95,1.95,0,0,0-1.264.472,2.446,2.446,0,0,0-.8,1.272V17Zm7.792,0L33.576,9h1.248l2.928,6.352L40.68,9h1.264L38.2,17ZM43.7,6.92a.836.836,0,0,1-.616-.248.85.85,0,0,1,0-1.2.836.836,0,0,1,.616-.248.791.791,0,0,1,.592.248.87.87,0,0,1,0,1.2A.791.791,0,0,1,43.7,6.92ZM43.128,17V9h1.12v8Zm7.056.16a4.013,4.013,0,0,1-2.992-1.208A4.058,4.058,0,0,1,46.008,13a4.058,4.058,0,0,1,1.184-2.952A4.013,4.013,0,0,1,50.184,8.84a4.2,4.2,0,0,1,2.168.56,4.019,4.019,0,0,1,1.5,1.536l-.976.56a2.934,2.934,0,0,0-1.08-1.184,2.986,2.986,0,0,0-1.608-.432,2.844,2.844,0,0,0-2.184.9A3.135,3.135,0,0,0,47.16,13,3.135,3.135,0,0,0,48,15.216a2.844,2.844,0,0,0,2.184.9,2.986,2.986,0,0,0,1.608-.432,2.934,2.934,0,0,0,1.08-1.184l.976.56a4.019,4.019,0,0,1-1.5,1.536A4.2,4.2,0,0,1,50.184,17.16Zm8.7,0a3.923,3.923,0,0,1-2.976-1.192A4.134,4.134,0,0,1,54.776,13a4.079,4.079,0,0,1,1.168-2.96,3.974,3.974,0,0,1,2.976-1.2,3.618,3.618,0,0,1,2.688,1.088,4.034,4.034,0,0,1,1.072,2.96v.3H55.928a2.859,2.859,0,0,0,2.96,2.928,2.985,2.985,0,0,0,1.576-.376,3.2,3.2,0,0,0,1.064-1.128l.912.592A3.819,3.819,0,0,1,58.888,17.16ZM56.024,12.2h5.488a2.68,2.68,0,0,0-.88-1.7,2.594,2.594,0,0,0-1.76-.624,2.918,2.918,0,0,0-1.848.632A2.673,2.673,0,0,0,56.024,12.2Z" transform="translate(189 1380.202)" fill="#a5a5a5"/>
  </g>
</svg>
