<svg id="logo" xmlns="http://www.w3.org/2000/svg" xmlns:xlink="http://www.w3.org/1999/xlink" width="221.885" height="42.083" viewBox="0 0 221.885 42.083">
  <defs>
    <clipPath id="clip-path">
      <rect id="Rectangle_1" data-name="Rectangle 1" width="221.885" height="42.083" fill="#132a4a"/>
    </clipPath>
  </defs>
  <g id="Group_1" data-name="Group 1" transform="translate(0 0)" clip-path="url(#clip-path)">
    <path id="Path_1" data-name="Path 1" d="M63.736,15.04A6.124,6.124,0,0,0,65.474,10.5c-.037-3.933-3.138-6.579-7.708-6.579A11.747,11.747,0,0,0,48.576,8.2a14.128,14.128,0,0,0-3.25,9.187c.075,5.824,3.553,9.19,9.564,9.19a18.843,18.843,0,0,0,8.017-1.663l.153-.078-.568-5.028-.3.153a12.821,12.821,0,0,1-5.824,1.323,4.749,4.749,0,0,1-3.931-1.55,4,4,0,0,1-.605-1.815c5.93.15,9.826-.8,11.907-2.876M52.391,12.884a4.908,4.908,0,0,1,4.651-3.933c1.285,0,2.081.605,2.081,1.588a1.536,1.536,0,0,1-.455,1.135C57.875,12.507,55.87,12.884,52.391,12.884Z" transform="translate(85.284 7.384)" fill="#132a4a"/>
    <path id="Path_2" data-name="Path 2" d="M62.741,10.365H54.082l-5.521,6.466c-.527.68-1.058,1.323-1.513,1.928l3.216-18L42.7,3.522,37.711,31.808l-.037.262h7.072L45.953,25.3l1.778-1.778,3.518,8.544h8.656L53.362,19.252Z" transform="translate(70.889 1.431)" fill="#132a4a"/>
    <path id="Path_3" data-name="Path 3" d="M21.385,3.924A8.7,8.7,0,0,0,14.8,7.062l.3-2.686H9.36L4.029,34.7l7.146-2.608,1.132-6.314a9.118,9.118,0,0,0,3.9.792c7.864,0,12.44-7.334,12.365-14.405-.075-4.991-2.873-8.241-7.184-8.241M15.9,21.43a3.946,3.946,0,0,1-2.648-.908l.72-4.423c.68-3.971,2.72-6.657,4.988-6.657,2.346,0,2.533,2.5,2.533,3.253.075,4.046-2.346,8.734-5.593,8.734" transform="translate(7.581 7.383)" fill="#132a4a"/>
    <path id="Path_4" data-name="Path 4" d="M14.1,15.994l.945-5.331H10.89l.15-.833c.19-1.1.908-3.591,3.516-3.591a6.443,6.443,0,0,1,1.248.112L16.788.793A15.488,15.488,0,0,0,14.368.6,10.476,10.476,0,0,0,7.976,2.8a11.76,11.76,0,0,0-4.046,7.259l-.112.643H1.02L.075,15.991h2.8L0,32.4H7.106L9.982,15.994Z" transform="translate(0 1.134)" fill="#132a4a"/>
    <path id="Path_5" data-name="Path 5" d="M45.752,13.378c.53-3.063.112-5.409-1.21-7.034-1.36-1.588-3.628-2.421-6.731-2.421a19.718,19.718,0,0,0-8.7,1.89l-.15.075.527,4.766.3-.153a13.451,13.451,0,0,1,6.051-1.588,3.676,3.676,0,0,1,2.836.87,1.942,1.942,0,0,1,.34,1.588l-.037.112c-7.942,0-13.008,3.026-13.953,8.319a5.986,5.986,0,0,0,1.135,4.8,6.084,6.084,0,0,0,4.8,2.006,9.511,9.511,0,0,0,6.466-2.421v1.965h6.092ZM38,18.141a6.839,6.839,0,0,1-.3,1.06,4.272,4.272,0,0,1-3.668,2.305A2.143,2.143,0,0,1,32.4,20.9a1.9,1.9,0,0,1-.3-1.625c.377-2.081,2.5-3.176,6.276-3.176Z" transform="translate(46.89 7.378)" fill="#132a4a"/>
    <path id="Path_6" data-name="Path 6" d="M63.746,24.255l-.228.037a12.433,12.433,0,0,1-1.7.075A1.4,1.4,0,0,1,60.23,23.2a1.549,1.549,0,0,1,0-.383,18.546,18.546,0,0,1,.3-2.645l1.326-7.034h3.856l.908-5.181H62.8l1.06-5.9-7.034,2.57L56.222,7.96H53.5l-.9,5.181h2.683l-1.513,8.2a18.37,18.37,0,0,0-.38,4.008c.04,2.988,2.2,4.8,5.824,4.8A12.93,12.93,0,0,0,62.8,29.7Z" transform="translate(98.962 3.877)" fill="#132a4a"/>
    <path id="Path_7" data-name="Path 7" d="M68.108,12.8c-1.741-.83-2.5-1.513-2.5-2.23,0-.983,1.02-1.625,2.533-1.625a9.216,9.216,0,0,1,4.161.945l.225.112.9-5.181A13.1,13.1,0,0,0,68.3,3.955c-5.634,0-9.527,3.1-9.489,7.524.037,2.383,1.622,4.348,4.726,5.861,2.118,1.02,2.533,1.738,2.57,2.533,0,1.02-.945,1.7-2.458,1.7a14.277,14.277,0,0,1-5.481-1.435l-.228-.115-.908,5.256a13.189,13.189,0,0,0,6.124,1.36c6.164,0,9.945-2.948,9.872-7.708,0-3.256-2.611-4.994-4.916-6.129" transform="translate(107.306 7.427)" fill="#132a4a"/>
    <path id="Path_8" data-name="Path 8" d="M46.159,6.249a5.707,5.707,0,0,0-4.576-1.89,9.034,9.034,0,0,0-4.348,1.058A11.982,11.982,0,0,0,34.212,7.8c-.68-2.155-2.686-3.441-5.334-3.441A9.054,9.054,0,0,0,22,7.419l.643-3.706-6.5,2.38-3.591,20.46h6.919l2.23-12.593a5.159,5.159,0,0,1,.53-1.588A4.016,4.016,0,0,1,25.515,10.1a2.053,2.053,0,0,1,1.588.643c.568.68.718,1.928.452,3.593l-2.23,12.212h6.919l2.23-12.63A5.779,5.779,0,0,1,35,12.3a3.856,3.856,0,0,1,3.25-2.193,2.084,2.084,0,0,1,1.628.643c.605.72.755,2.043.415,3.933L38.217,26.515h6.919L47.37,13.81c.568-3.325.15-5.936-1.21-7.561" transform="translate(23.605 6.986)" fill="#132a4a"/>
    <path id="Path_9" data-name="Path 9" d="M49.706,4.407a8.267,8.267,0,0,0-1.438-.075A7.943,7.943,0,0,0,41.88,8.263l.792-4.536L36.094,6.11,32.5,26.529h7.069L41.5,15.565a7.043,7.043,0,0,1,.377-1.438A5.05,5.05,0,0,1,46.8,10.914a9.611,9.611,0,0,1,1.7.15l.228.037L49.9,4.447Z" transform="translate(61.159 7.012)" fill="#132a4a"/>
    <path id="Path_10" data-name="Path 10" d="M72.29,33.25c.452-.34.87-.643,1.323-.945.34-.265,1.1-.833,1.1-.833C90.024,19.79,92.975,11.093,95.28.013,88.4,17.294,78,22.36,72.44,26.066A14.929,14.929,0,0,1,69.6,11.015a14.63,14.63,0,0,1,8.319-8.432,16.952,16.952,0,0,0-12.172,10.55,17.3,17.3,0,0,0,6.5,20.194c0-.078,0-.078.037-.078" transform="translate(121.761 0.024)" fill="#132a4a"/>
    <path id="Path_11" data-name="Path 11" d="M92.416,22.2a15.115,15.115,0,0,1-13.538,9.6c3.781-5.559,12.443-15.428,9.6-31.8-.9,13.61-5.253,20.834-15.653,30.966-1.248,1.21-2.57,2.458-4.008,3.781a3.893,3.893,0,0,0-.377.377,7.789,7.789,0,0,0,.87.343c9.224,3.478,19.4-.945,22.725-9.832A16.249,16.249,0,0,0,93.1,19.585a15.32,15.32,0,0,1-.68,2.611" transform="translate(128.786 0.001)" fill="#132a4a"/>
  </g>
</svg>
