<svg xmlns="http://www.w3.org/2000/svg" xmlns:xlink="http://www.w3.org/1999/xlink" width="320.813" height="60.846" viewBox="0 0 320.813 60.846">
  <defs>
    <clipPath id="clip-path">
      <rect id="Rectangle_1" data-name="Rectangle 1" width="320.813" height="60.846" fill="#fff"/>
    </clipPath>
  </defs>
  <g id="logo" transform="translate(0 0)">
    <g id="Group_1" data-name="Group 1" transform="translate(0 0)" clip-path="url(#clip-path)">
      <path id="Path_1" data-name="Path 1" d="M71.945,20a8.855,8.855,0,0,0,2.512-6.558C74.4,7.75,69.92,3.926,63.312,3.926A16.984,16.984,0,0,0,50.026,10.1a20.427,20.427,0,0,0-4.7,13.283c.108,8.42,5.137,13.287,13.828,13.287,2.079,0,7.275-.217,11.591-2.4l.221-.112-.821-7.27-.437.221a18.538,18.538,0,0,1-8.42,1.912c-2.571,0-4.537-.767-5.683-2.242a5.78,5.78,0,0,1-.875-2.625C63.3,24.37,68.937,23,71.945,20m-16.4-3.116c.767-2.9,3.062-5.687,6.725-5.687,1.858,0,3.008.875,3.008,2.3a2.221,2.221,0,0,1-.658,1.642C63.471,16.333,60.571,16.879,55.542,16.879Z" transform="translate(143.516 12.427)" fill="#fff"/>
      <path id="Path_2" data-name="Path 2" d="M73.918,14.648H61.4L53.415,24c-.762.983-1.529,1.912-2.187,2.787L55.877.761,44.94,4.752l-7.212,40.9-.054.379H47.9l1.746-9.783,2.571-2.571L57.3,46.029H69.818L60.356,27.5Z" transform="translate(119.291 2.409)" fill="#fff"/>
      <path id="Path_3" data-name="Path 3" d="M29.123,3.924a12.576,12.576,0,0,0-9.516,4.537l.437-3.883H11.737L4.029,48.421l10.333-3.771L16,35.522a13.183,13.183,0,0,0,5.633,1.146c11.37,0,17.986-10.6,17.878-20.828C39.4,8.624,35.356,3.924,29.123,3.924M21.2,29.235a5.7,5.7,0,0,1-3.829-1.312l1.042-6.4c.983-5.741,3.933-9.624,7.212-9.624,3.391,0,3.662,3.612,3.662,4.7.108,5.85-3.391,12.628-8.087,12.628" transform="translate(12.757 12.424)" fill="#fff"/>
      <path id="Path_4" data-name="Path 4" d="M20.39,22.856l1.367-7.708H15.745l.217-1.2c.275-1.587,1.312-5.191,5.083-5.191a9.315,9.315,0,0,1,1.8.162L24.274.878A22.393,22.393,0,0,0,20.774.6a15.147,15.147,0,0,0-9.241,3.171,17,17,0,0,0-5.85,10.5L5.52,15.2H1.475L.108,22.852H4.154L0,46.583H10.274l4.158-23.728Z" transform="translate(0 1.909)" fill="#fff"/>
      <path id="Path_5" data-name="Path 5" d="M55.04,17.594c.767-4.429.162-7.82-1.75-10.17-1.967-2.3-5.245-3.5-9.733-3.5A28.509,28.509,0,0,0,30.983,6.657l-.217.108.762,6.891.437-.221a19.449,19.449,0,0,1,8.749-2.3c2.021,0,3.387.437,4.1,1.258a2.808,2.808,0,0,1,.492,2.3l-.054.162c-11.483,0-18.807,4.375-20.174,12.028a8.655,8.655,0,0,0,1.642,6.941,8.8,8.8,0,0,0,6.941,2.9,13.751,13.751,0,0,0,9.349-3.5v2.841h8.808ZM43.832,24.481a9.888,9.888,0,0,1-.437,1.533,6.176,6.176,0,0,1-5.3,3.333,3.1,3.1,0,0,1-2.35-.875,2.749,2.749,0,0,1-.437-2.35c.546-3.008,3.608-4.591,9.074-4.591Z" transform="translate(78.906 12.416)" fill="#fff"/>
      <path id="Path_6" data-name="Path 6" d="M68.718,34.151l-.329.054a17.977,17.977,0,0,1-2.458.108,2.02,2.02,0,0,1-2.3-1.687,2.24,2.24,0,0,1,0-.554,26.815,26.815,0,0,1,.437-3.825l1.917-10.17h5.575l1.312-7.491h-5.52l1.533-8.524L58.714,5.777,57.84,10.59H53.9l-1.308,7.491h3.879L54.286,29.943a26.56,26.56,0,0,0-.55,5.8c.058,4.321,3.175,6.945,8.42,6.945a18.7,18.7,0,0,0,5.2-.658Z" transform="translate(166.534 6.525)" fill="#fff"/>
      <path id="Path_7" data-name="Path 7" d="M73.048,16.749c-2.517-1.2-3.608-2.187-3.608-3.225,0-1.421,1.475-2.35,3.662-2.35a13.325,13.325,0,0,1,6.016,1.367l.325.162,1.308-7.491a18.936,18.936,0,0,0-7.433-1.254c-8.145,0-13.774,4.483-13.72,10.878.054,3.446,2.346,6.287,6.833,8.474,3.062,1.475,3.662,2.512,3.716,3.662,0,1.475-1.367,2.458-3.554,2.458a20.642,20.642,0,0,1-7.925-2.075l-.329-.167-1.312,7.6a19.069,19.069,0,0,0,8.854,1.967c8.912,0,14.378-4.262,14.274-11.145,0-4.708-3.775-7.22-7.108-8.862" transform="translate(180.574 12.499)" fill="#fff"/>
      <path id="Path_8" data-name="Path 8" d="M61.146,7.379A8.251,8.251,0,0,0,54.53,4.646a13.062,13.062,0,0,0-6.287,1.529,17.325,17.325,0,0,0-4.371,3.441C42.889,6.5,39.989,4.642,36.16,4.642a13.091,13.091,0,0,0-9.949,4.429l.929-5.358-9.4,3.441L12.545,36.736h10l3.225-18.207a7.459,7.459,0,0,1,.767-2.3c.875-1.587,2.571-3.279,4.758-3.279a2.968,2.968,0,0,1,2.3.929c.821.983,1.037,2.787.654,5.2L31.023,36.736h10l3.225-18.261a8.356,8.356,0,0,1,.767-2.35,5.575,5.575,0,0,1,4.7-3.171,3.014,3.014,0,0,1,2.354.929c.875,1.042,1.092,2.954.6,5.687L49.664,36.682h10L62.9,18.312c.821-4.808.217-8.583-1.75-10.933" transform="translate(39.723 11.756)" fill="#fff"/>
      <path id="Path_9" data-name="Path 9" d="M57.376,4.71A11.953,11.953,0,0,0,55.3,4.6a11.485,11.485,0,0,0-9.237,5.683l1.146-6.558L37.694,7.173,32.5,36.7h10.22l2.792-15.853a10.183,10.183,0,0,1,.546-2.079,7.3,7.3,0,0,1,7.108-4.646,13.9,13.9,0,0,1,2.458.217l.329.054,1.7-9.62Z" transform="translate(102.918 11.8)" fill="#fff"/>
      <path id="Path_10" data-name="Path 10" d="M75.67,48.068c.654-.492,1.258-.929,1.912-1.367.492-.383,1.587-1.2,1.587-1.2,22.14-16.891,26.407-29.465,29.74-45.485C98.96,25,83.923,32.324,75.886,37.682a21.585,21.585,0,0,1-4.1-21.761A21.152,21.152,0,0,1,83.815,3.729a24.51,24.51,0,0,0-17.6,15.253,25.018,25.018,0,0,0,9.4,29.2c0-.112,0-.112.054-.112" transform="translate(204.9 0.04)" fill="#41b7e9"/>
      <path id="Path_11" data-name="Path 11" d="M103.1,32.091A21.854,21.854,0,0,1,83.531,45.977C89,37.94,101.521,23.67,97.417,0c-1.308,19.678-7.6,30.123-22.632,44.772-1.8,1.75-3.716,3.554-5.8,5.466a5.627,5.627,0,0,0-.546.546,11.262,11.262,0,0,0,1.258.5c13.337,5.029,28.044-1.367,32.856-14.216a23.493,23.493,0,0,0,1.529-8.749,22.15,22.15,0,0,1-.983,3.775" transform="translate(216.721 0.002)" fill="#fff"/>
    </g>
  </g>
</svg>
