<svg xmlns="http://www.w3.org/2000/svg" width="198.676" height="87.166" viewBox="0 0 198.676 87.166">
  <g id="trustpilot" transform="translate(-8.629 -3.786)">
    <g id="stars-5-1" transform="translate(8.629 53.699)">
      <g id="Group_83" data-name="Group 83" transform="translate(0)">
        <path id="Path_79179" data-name="Path 79179" d="M8.629,112.228H45.881V149.48H8.629Zm40.356,0H86.24V149.48H48.985Zm40.357,0h37.252V149.48H89.341Zm40.353,0h37.253V149.48H129.694Zm40.356,0H207.3V149.48H170.054Z" transform="translate(-8.629 -112.228)" fill="#00b67a"/>
      </g>
      <path id="Path_79180" data-name="Path 79180" d="M33.806,144.705l5.666-1.436,2.368,7.295Zm13.038-9.43H36.872l-3.065-9.39-3.065,9.391H20.768l8.071,5.82-3.065,9.391,8.071-5.82,4.967-3.57Zm27.318,9.43,5.666-1.436,2.368,7.295Zm13.038-9.43H77.227l-3.065-9.39L71.1,135.277H61.124L69.2,141.1l-3.065,9.391,8.076-5.82,4.967-3.57Zm27.317,9.43,5.666-1.436,2.368,7.295Zm13.038-9.43h-9.973l-3.065-9.39-3.065,9.391H101.48l8.071,5.82-3.065,9.391,8.071-5.82,4.967-3.57Zm27.317,9.43,5.666-1.436,2.368,7.295Zm13.038-9.43h-9.973l-3.065-9.39-3.065,9.391h-9.976l8.071,5.82-3.065,9.391,8.071-5.82,4.967-3.57Zm27.317,9.43,5.666-1.436,2.367,7.295Zm13.038-9.43H198.3l-3.065-9.39-3.065,9.391h-9.973l8.071,5.82-3.065,9.391,8.072-5.82,4.967-3.57Z" transform="translate(-15.181 -119.599)" fill="#fff"/>
    </g>
    <g id="trustpilot-1" transform="translate(8.629 3.786)">
      <path id="Path_79181" data-name="Path 79181" d="M95.247,32.464H110.6v2.858h-6.044V51.431h-3.313V35.322H95.222ZM109.94,37.7h2.833v2.655h.051a3.336,3.336,0,0,1,.532-1.087,4.215,4.215,0,0,1,.936-.961A4.136,4.136,0,0,1,115.5,37.6a3.525,3.525,0,0,1,1.341-.278c.354,0,.607.025.733.025a2.215,2.215,0,0,0,.4.051V40.3a5.1,5.1,0,0,0-.658-.1,5.7,5.7,0,0,0-.658-.051,3.505,3.505,0,0,0-1.442.3,3.651,3.651,0,0,0-1.188.881,4.786,4.786,0,0,0-.809,1.468,6.2,6.2,0,0,0-.3,2.023v6.522h-3.034Zm21.952,13.732h-2.984V49.509h-.051a4.235,4.235,0,0,1-1.669,1.669,4.4,4.4,0,0,1-2.251.632,5.008,5.008,0,0,1-3.92-1.341,5.866,5.866,0,0,1-1.214-4.046V37.7h3.034v8.417a3.591,3.591,0,0,0,.708,2.555,2.5,2.5,0,0,0,1.948.758,3.727,3.727,0,0,0,1.593-.3,2.747,2.747,0,0,0,1.037-.783,3.068,3.068,0,0,0,.581-1.189,5.61,5.61,0,0,0,.177-1.493V37.693h3.034V51.431Zm5.158-4.4a2.388,2.388,0,0,0,1.012,1.871,3.986,3.986,0,0,0,2.1.532,6.994,6.994,0,0,0,.961-.076,4.242,4.242,0,0,0,1.012-.253,1.782,1.782,0,0,0,.783-.556,1.3,1.3,0,0,0,.278-.936,1.361,1.361,0,0,0-.43-.961,3.588,3.588,0,0,0-1.012-.607,8.808,8.808,0,0,0-1.416-.38c-.532-.1-1.062-.228-1.619-.354s-1.113-.278-1.644-.455a4.7,4.7,0,0,1-1.416-.733,3.149,3.149,0,0,1-.987-1.164,3.636,3.636,0,0,1-.38-1.745,2.993,2.993,0,0,1,.556-1.871,4.032,4.032,0,0,1,1.391-1.213,6.3,6.3,0,0,1,1.871-.658,10.714,10.714,0,0,1,1.948-.177,8.7,8.7,0,0,1,2.023.228,5.112,5.112,0,0,1,1.745.733,4.007,4.007,0,0,1,1.29,1.315,4.547,4.547,0,0,1,.658,1.947h-3.161a1.946,1.946,0,0,0-.986-1.468,4.065,4.065,0,0,0-1.8-.38c-.2,0-.481.025-.759.051a4.486,4.486,0,0,0-.835.2,1.979,1.979,0,0,0-.658.43,1.012,1.012,0,0,0-.278.733,1.111,1.111,0,0,0,.38.881,3.432,3.432,0,0,0,1.012.581,8.713,8.713,0,0,0,1.416.38c.532.1,1.088.228,1.644.354a16.8,16.8,0,0,1,1.619.455,4.43,4.43,0,0,1,1.416.733,3.65,3.65,0,0,1,1.012,1.138,3.5,3.5,0,0,1,.38,1.694,3.686,3.686,0,0,1-.556,2.074,4.723,4.723,0,0,1-1.442,1.391,7.14,7.14,0,0,1-1.973.783,10.623,10.623,0,0,1-2.153.253,9.067,9.067,0,0,1-2.4-.3,6.12,6.12,0,0,1-1.922-.881,4.252,4.252,0,0,1-1.264-1.493A4.871,4.871,0,0,1,133.961,47h3.06v.025Zm9.99-9.332h2.3V33.548h3.034V37.67h2.731v2.251h-2.731v7.335a7.8,7.8,0,0,0,.051.835,1.757,1.757,0,0,0,.177.581.987.987,0,0,0,.43.354,2.26,2.26,0,0,0,.809.127,5.277,5.277,0,0,0,.632-.026,5.526,5.526,0,0,0,.632-.1v2.349c-.329.051-.658.076-.986.1a6.254,6.254,0,0,1-.986.051,6.543,6.543,0,0,1-1.922-.228,2.765,2.765,0,0,1-1.138-.658,2.347,2.347,0,0,1-.556-1.087,8.626,8.626,0,0,1-.177-1.517V39.943h-2.3V37.693Zm10.192,0h2.858v1.871h.051a3.756,3.756,0,0,1,1.77-1.72,5.729,5.729,0,0,1,2.478-.532,6.232,6.232,0,0,1,2.833.581,5.317,5.317,0,0,1,2,1.566,6.543,6.543,0,0,1,1.188,2.327,10.217,10.217,0,0,1,.051,5.513,7.441,7.441,0,0,1-1.088,2.3,5.379,5.379,0,0,1-1.846,1.593,5.456,5.456,0,0,1-2.63.607,7.69,7.69,0,0,1-1.315-.126,5.609,5.609,0,0,1-1.264-.38,4.526,4.526,0,0,1-1.113-.685,3.851,3.851,0,0,1-.86-.961h-.051V56.5h-3.034V37.7Zm10.6,6.879a6.145,6.145,0,0,0-.253-1.8,4.579,4.579,0,0,0-.733-1.542,4.048,4.048,0,0,0-1.188-1.087,3.233,3.233,0,0,0-1.645-.4,3.359,3.359,0,0,0-2.883,1.315,5.992,5.992,0,0,0-.961,3.541,6.56,6.56,0,0,0,.253,1.923,4.275,4.275,0,0,0,.759,1.517,3.605,3.605,0,0,0,1.213,1.012,3.426,3.426,0,0,0,1.644.38A3.368,3.368,0,0,0,165.78,49a4.074,4.074,0,0,0,1.188-1.088,4.452,4.452,0,0,0,.658-1.542,8.689,8.689,0,0,0,.2-1.8Zm5.336-12.114H176.2v2.858h-3.034Zm0,5.235H176.2V51.431h-3.034Zm5.736-5.232h3.034V51.431H178.9Zm12.291,19.347a7.224,7.224,0,0,1-2.936-.556,6.656,6.656,0,0,1-2.175-1.492,6.5,6.5,0,0,1-1.341-2.3,9,9,0,0,1-.481-2.909,8.217,8.217,0,0,1,.481-2.883,6.722,6.722,0,0,1,1.341-2.3,6.071,6.071,0,0,1,2.175-1.493,7.681,7.681,0,0,1,2.936-.556,7.226,7.226,0,0,1,2.936.556,6.3,6.3,0,0,1,2.174,1.493,6.49,6.49,0,0,1,1.341,2.3,8.833,8.833,0,0,1,.481,2.883,8.261,8.261,0,0,1-.481,2.909,7.164,7.164,0,0,1-1.341,2.3,6.067,6.067,0,0,1-2.174,1.492,7.579,7.579,0,0,1-2.931.556Zm0-2.4a3.5,3.5,0,0,0,1.745-.429,3.663,3.663,0,0,0,1.213-1.113,4.766,4.766,0,0,0,.709-1.542,6.9,6.9,0,0,0,0-3.516,4.532,4.532,0,0,0-.709-1.542,3.838,3.838,0,0,0-1.213-1.087,3.569,3.569,0,0,0-1.745-.43,3.5,3.5,0,0,0-1.745.43,3.872,3.872,0,0,0-1.213,1.087,4.533,4.533,0,0,0-.709,1.542,6.905,6.905,0,0,0,0,3.516,4.533,4.533,0,0,0,.709,1.542,3.929,3.929,0,0,0,1.213,1.113,3.316,3.316,0,0,0,1.75.429ZM199.03,37.7h2.3V33.551h3.034v4.122H207.1v2.251h-2.732v7.335a7.673,7.673,0,0,0,.051.834,1.753,1.753,0,0,0,.177.581.988.988,0,0,0,.43.354,2.251,2.251,0,0,0,.809.126,5.274,5.274,0,0,0,.632-.025,5.437,5.437,0,0,0,.632-.1v2.349c-.329.051-.658.076-.987.1a6.306,6.306,0,0,1-.986.051A6.529,6.529,0,0,1,203.2,51.3a2.757,2.757,0,0,1-1.138-.658,2.346,2.346,0,0,1-.557-1.087,8.663,8.663,0,0,1-.177-1.517V39.947h-2.3V37.7Z" transform="translate(-55.365 -19.263)" fill="#fff"/>
      <path id="Path_79182" data-name="Path 79182" d="M44.97,16.988H31.086l-4.274-13.2-4.3,13.2L8.629,16.962,19.857,25.13l-4.3,13.2,11.229-8.168,11.228,8.168-4.274-13.2Z" transform="translate(-8.629 -3.786)" fill="#00b67a"/>
      <path id="Path_79183" data-name="Path 79183" d="M56.025,53.143l-.962-2.984-6.929,5.032Z" transform="translate(-29.951 -28.815)" fill="#005128"/>
    </g>
  </g>
</svg>
