<svg xmlns="http://www.w3.org/2000/svg" width="26.224" height="21.31" viewBox="0 0 26.224 21.31">
  <path id="twitter-icon" d="M56.938,5.314c.011.23.016.461.016.695A15.3,15.3,0,0,1,33.4,18.9a10.918,10.918,0,0,0,7.965-2.228,5.382,5.382,0,0,1-5.025-3.736,5.392,5.392,0,0,0,2.428-.093,5.386,5.386,0,0,1-4.315-5.275V7.5a5.332,5.332,0,0,0,2.438.673A5.389,5.389,0,0,1,35.224.989,15.27,15.27,0,0,0,46.313,6.61,5.384,5.384,0,0,1,55.481,1.7,10.8,10.8,0,0,0,58.9.4a5.4,5.4,0,0,1-2.366,2.974,10.633,10.633,0,0,0,3.089-.845,10.9,10.9,0,0,1-2.684,2.785" transform="translate(-33.398 -0.006)" fill="#41b8ea"/>
</svg>
