<svg xmlns="http://www.w3.org/2000/svg" width="30.095" height="21.297" viewBox="0 0 30.095 21.297">
  <path id="Youtube-icon" d="M203.3,7.341q-.018-.534-.058-1.068a7.837,7.837,0,0,0-1.28-4.443A4.875,4.875,0,0,0,198.536.422c-1.589-.179-3.184-.288-4.781-.349-3.235-.123-6.472-.052-9.707.02-1.662.037-3.325.074-4.982.206-2.035.162-4.128.46-5.075,2.494-.851,1.825-.746,4.142-.756,6.106-.01,1.76-.016,3.522.055,5.281.091,2.283.227,5.258,2.692,6.259a14.167,14.167,0,0,0,4.31.745c1.489.1,2.983.086,4.474.108,3.129.046,6.257-.061,9.385-.123a21.25,21.25,0,0,0,6.481-.777c1.794-.612,2.262-2.557,2.5-4.244a35.094,35.094,0,0,0,.177-5.065c0-1.246.031-2.495-.012-3.742M185.227,15.2V6.044l7.793,4.577L185.227,15.2" transform="translate(-173.229 -0.006)" fill="#41b8ea"/>
</svg>
